<svg xmlns="http://www.w3.org/2000/svg" xmlns:xlink="http://www.w3.org/1999/xlink" width="500" zoomAndPan="magnify" viewBox="0 0 375 374.999991" height="500" preserveAspectRatio="xMidYMid meet" version="1.0"><defs><clipPath id="id1"><path d="M 323.410156 322.398438 L 358.777344 322.398438 L 358.777344 374.992188 L 323.410156 374.992188 Z M 323.410156 322.398438 " clip-rule="nonzero"/></clipPath><clipPath id="id2"><path d="M 338.230469 329.875 L 358.777344 329.875 L 358.777344 370.304688 L 338.230469 370.304688 Z M 338.230469 329.875 " clip-rule="nonzero"/></clipPath></defs><path fill="#7a4f42" d="M 172.878906 176.058594 C 179.285156 120.796875 198.832031 137.984375 212.394531 88.339844 C 220.402344 84.070312 228.832031 40.265625 200.15625 33.589844 C 180.667969 0 121.894531 15.648438 113.558594 61.492188 C 109.515625 83.734375 63.339844 102.9375 57.609375 150.113281 C 54.15625 178.546875 64.105469 184.117188 65.699219 183.808594 C 85.464844 179.972656 102.972656 186.390625 116.59375 186.167969 C 142.445312 185.746094 154.3125 176.515625 141.195312 133.941406 C 137.957031 126.539062 141.660156 165.425781 150.632812 140.679688 C 151.671875 140.476562 149.84375 145.785156 146.925781 148.089844 C 96.058594 188.339844 172.207031 181.863281 172.878906 176.058594 " fill-opacity="1" fill-rule="nonzero"/><path fill="#5c3c31" d="M 181.882812 27.800781 C 167.613281 25.046875 147.722656 30.054688 137.148438 40.234375 C 145.660156 27.894531 168.214844 22.144531 181.882812 27.800781 " fill-opacity="1" fill-rule="nonzero"/><path fill="#5c3c31" d="M 122.882812 77.808594 C 121.578125 109.253906 99.226562 99.421875 87.519531 120.527344 C 96.816406 97.175781 117.519531 109.355469 122.882812 77.808594 " fill-opacity="1" fill-rule="nonzero"/><path fill="#ffad8a" d="M 271.210938 240.144531 C 270.914062 240.167969 270.640625 240.171875 270.390625 240.164062 C 270.359375 240.121094 270.320312 240.113281 270.277344 240.042969 C 254.917969 236.074219 239.820312 231.90625 225.566406 227.828125 C 219.496094 225.46875 206.179688 224.226562 204.511719 219.132812 C 203.421875 214.636719 206.535156 211.84375 208.460938 206.792969 C 209.921875 203.636719 216.222656 200.507812 221.789062 203.171875 C 236.128906 208.957031 256.40625 219.90625 270.796875 227.066406 C 272.878906 228.085938 277.417969 230.65625 278.390625 231.144531 C 284.757812 235.804688 275.824219 239.804688 271.210938 240.144531 " fill-opacity="1" fill-rule="nonzero"/><path fill="#ea8f68" d="M 271.210938 240.144531 C 271.117188 240.128906 266.527344 239.078125 266.421875 239.042969 C 265.71875 237.429688 266.167969 232.988281 269.964844 226.683594 C 272.207031 227.671875 277.164062 230.53125 278.390625 231.144531 C 284.757812 235.804688 275.824219 239.804688 271.210938 240.144531 " fill-opacity="1" fill-rule="nonzero"/><path fill="#3b4d96" d="M 266.851562 224.777344 C 264.902344 226.894531 260.902344 233.648438 259.949219 236.769531 C 244.160156 239.667969 200.996094 227.128906 187.148438 219.953125 C 175.308594 211.804688 143.371094 157.632812 136.46875 143.820312 C 128.546875 122.621094 156.132812 108.417969 169.078125 123.132812 C 183.558594 144.640625 192.84375 169.550781 205.570312 192.230469 C 225.132812 199.300781 257.878906 211.144531 266.851562 224.777344 " fill-opacity="1" fill-rule="nonzero"/><path fill="#31357d" d="M 266.855469 224.777344 C 264.75 227.023438 260.703125 234.105469 259.761719 237.367188 C 258.96875 237.867188 257.660156 237.609375 255.253906 237.199219 C 256.742188 232.058594 261.15625 225.054688 264.195312 221.46875 C 266.140625 222.675781 266.667969 223.5625 266.855469 224.777344 " fill-opacity="1" fill-rule="nonzero"/><path fill="#ffad8a" d="M 94.914062 168.546875 C 94.375 169.425781 87.257812 130.421875 111.957031 120.714844 C 122.125 117.230469 128.230469 108.375 134.117188 99.734375 C 136.496094 96.269531 138.039062 90.796875 138.371094 86.867188 L 156.410156 100.324219 L 157.800781 101.359375 C 157.773438 101.386719 157.746094 101.410156 157.71875 101.433594 C 150.429688 108.035156 148.121094 112.34375 149.671875 115.585938 C 150.445312 117.203125 152.179688 118.554688 154.738281 119.792969 C 156.199219 120.496094 157.441406 121.9375 159.449219 122.527344 C 166.554688 129.082031 172.105469 143.683594 174.742188 157.726562 C 172.449219 160.582031 170.441406 163.078125 169.578125 162.777344 C 171.144531 182.507812 177.726562 209.84375 179.925781 217.96875 C 189.914062 257.394531 110.378906 229.28125 94.914062 168.546875 " fill-opacity="1" fill-rule="nonzero"/><path fill="#ea8f68" d="M 149.671875 115.585938 C 146.210938 118.691406 133.464844 105.199219 134.117188 99.734375 C 136.496094 96.269531 138.039062 90.796875 138.371094 86.867188 L 156.410156 100.324219 L 157.71875 101.433594 C 150.429688 108.035156 148.121094 112.34375 149.671875 115.585938 " fill-opacity="1" fill-rule="nonzero"/><path fill="#ea8f68" d="M 276.714844 326.960938 C 275.101562 324.316406 272.457031 322.292969 269.847656 320.761719 C 255.925781 313.535156 241.132812 306.917969 226.898438 300.480469 C 198.796875 289.203125 169.664062 280.992188 140.277344 274.03125 C 105.035156 267.445312 93.296875 310.195312 114.308594 327.308594 C 113.066406 331.300781 114.851562 336.296875 119.835938 337.355469 C 148.796875 343.546875 178.371094 346.972656 208.027344 347.128906 C 226.535156 346.867188 244.917969 347.90625 263.492188 347.070312 C 267.371094 346.707031 271.582031 345.753906 274.652344 342.859375 C 279.0625 338.945312 279.9375 331.886719 276.714844 326.960938 " fill-opacity="1" fill-rule="nonzero"/><path fill="#ffad8a" d="M 267.714844 349.046875 C 267.203125 340.421875 258.371094 336.253906 251.804688 332.613281 C 245.703125 329.335938 239.207031 325.925781 233.148438 322.625 C 197.644531 302.839844 159.179688 289.351562 120.628906 277.011719 C 76.511719 266.3125 65.882812 332.238281 111.0625 336.769531 C 112.066406 336.941406 113.070312 337.117188 114.074219 337.289062 C 108.554688 337.457031 103.03125 337.730469 97.515625 338.121094 C 94.945312 338.332031 92.441406 338.574219 89.851562 338.945312 C 81.4375 340.007812 81.078125 352.542969 89.410156 354.128906 C 102.378906 356.679688 118.644531 349.332031 131.78125 350.851562 C 168.269531 355.554688 200.359375 359.871094 237.082031 360.152344 C 241.621094 360.128906 246.199219 360.148438 250.78125 359.707031 C 258.871094 359.25 268.125 358.136719 267.714844 349.046875 " fill-opacity="1" fill-rule="nonzero"/><path fill="#5e73c7" d="M 241.613281 305.210938 C 241.972656 305.769531 241.628906 306.507812 240.96875 306.59375 C 237.390625 307.066406 228.230469 309.046875 227.433594 317.734375 C 227.152344 320.851562 223.292969 316.144531 220.164062 316.179688 C 208.042969 316.316406 209.121094 327.4375 205.351562 336.898438 C 203.171875 342.371094 187.773438 340.289062 183.191406 343.988281 C 174.175781 351.265625 129.664062 341.285156 122.574219 347.300781 C 109.355469 358.515625 88.253906 352.949219 67.582031 347.300781 C 16.3125 333.292969 57.253906 338.265625 65.125 313.867188 C 96.476562 232.839844 122.132812 288.757812 97.324219 179.792969 C 95.710938 182.34375 81.824219 138.242188 99.015625 127.785156 C 103.011719 125.394531 112.078125 120.308594 116.757812 117.886719 C 117.117188 117.699219 117.558594 117.847656 117.738281 118.207031 C 124.273438 131.847656 141.644531 133.382812 147.5 132.730469 C 148.128906 132.660156 148.699219 133.097656 148.792969 133.71875 C 149.449219 138.085938 153.9375 152.960938 154.1875 152.875 C 154.730469 152.695312 153.300781 132.597656 153.78125 132.339844 C 157.027344 130.59375 159.683594 121.5 153.742188 119.316406 C 182.136719 129.757812 179.589844 202.167969 185.550781 229.554688 C 188.484375 243.019531 196.371094 258.082031 203.34375 268.589844 C 209.101562 280.269531 231.839844 290.074219 241.613281 305.210938 " fill-opacity="1" fill-rule="nonzero"/><path fill="#ffad8a" d="M 233.148438 322.625 C 243.253906 329.585938 266.476562 335.527344 267.710938 349.046875 C 267.941406 364.554688 246.082031 365.90625 235.011719 365.398438 C 184.109375 363.070312 99.253906 353.710938 89.410156 354.125 C 80.9375 354.488281 81.4375 340.007812 89.851562 338.945312 C 97.890625 336.109375 102.613281 323.679688 108.113281 337.511719 C 164.425781 323.957031 203.636719 347.027344 250.726562 340.714844 L 233.148438 322.625 " fill-opacity="1" fill-rule="nonzero"/><path fill="#ea8f68" d="M 203.414062 338.984375 C 205.640625 338.9375 207.855469 338.992188 210.070312 339.078125 C 212.28125 339.160156 214.492188 339.304688 216.699219 339.449219 L 220.007812 339.703125 C 221.109375 339.8125 222.210938 339.886719 223.3125 340.007812 C 225.515625 340.210938 227.714844 340.457031 229.925781 340.710938 C 227.707031 340.929688 225.476562 340.929688 223.261719 340.886719 C 222.152344 340.871094 221.042969 340.816406 219.9375 340.773438 L 216.621094 340.578125 C 214.410156 340.40625 212.203125 340.21875 210 339.957031 C 207.800781 339.703125 205.601562 339.402344 203.414062 338.984375 " fill-opacity="1" fill-rule="nonzero"/><path fill="#31357d" d="M 157.023438 137.222656 C 153.902344 138.253906 150.179688 138.507812 147.515625 140.414062 C 150.558594 141.1875 153.921875 140.039062 157.054688 139.855469 C 142.925781 144.414062 143.421875 137.890625 157.023438 137.222656 " fill-opacity="1" fill-rule="nonzero"/><path fill="#31357d" d="M 157.597656 143.980469 C 154.476562 145.007812 150.757812 145.265625 148.089844 147.167969 C 151.132812 147.941406 154.5 146.792969 157.628906 146.613281 C 143.5 151.171875 143.996094 144.644531 157.597656 143.980469 " fill-opacity="1" fill-rule="nonzero"/><path fill="#31357d" d="M 149.464844 140.214844 C 149.675781 142.828125 145.703125 143.167969 145.46875 140.554688 C 145.257812 137.941406 149.230469 137.601562 149.464844 140.214844 " fill-opacity="1" fill-rule="nonzero"/><path fill="#31357d" d="M 150.632812 146.585938 C 150.84375 149.199219 146.867188 149.535156 146.632812 146.925781 C 146.421875 144.3125 150.398438 143.972656 150.632812 146.585938 " fill-opacity="1" fill-rule="nonzero"/><path fill="#ea8f68" d="M 145.214844 60.246094 C 127.734375 51.191406 135.785156 82.265625 139.636719 74.617188 C 139.636719 74.617188 145.214844 60.246094 145.214844 60.246094 " fill-opacity="1" fill-rule="nonzero"/><path fill="#ea8f68" d="M 191.957031 105.625 C 186.113281 107.707031 182.496094 110.03125 180.636719 107.972656 C 180.636719 107.972656 200.011719 102.761719 191.957031 105.625 " fill-opacity="1" fill-rule="nonzero"/><path fill="#ffad8a" d="M 203.265625 87.53125 C 193.460938 102.8125 169.625 125.851562 151.832031 113.582031 C 140.332031 105.601562 133.683594 83.25 139.101562 69.113281 C 145.382812 55.160156 154.691406 38.925781 171.632812 38.992188 C 195.617188 38.511719 218.820312 64.726562 203.265625 87.53125 " fill-opacity="1" fill-rule="nonzero"/><path fill="#ea8f68" d="M 163.574219 92.867188 C 164.316406 92.417969 173.078125 86.726562 173.445312 86.875 C 173.8125 87.019531 170.007812 93.53125 169.855469 93.738281 C 168.875 93.882812 164.28125 93.128906 163.574219 92.867188 " fill-opacity="1" fill-rule="nonzero"/><path fill="#e28361" d="M 162.796875 93.269531 C 162.375 92.878906 162.964844 92.105469 163.46875 92.296875 C 164.828125 92.742188 166.011719 92.765625 167.050781 92.785156 C 169.617188 92.835938 171.066406 93.09375 170.976562 97.828125 C 170.972656 98.132812 170.714844 98.417969 170.402344 98.460938 C 170.089844 98.507812 169.84375 98.292969 169.851562 97.984375 C 170.171875 91.550781 166.394531 95.074219 162.796875 93.269531 " fill-opacity="1" fill-rule="nonzero"/><path fill="#752829" d="M 155.21875 95.382812 C 156.777344 98.980469 161.921875 103.5625 170.644531 104.253906 C 162.753906 108.738281 154.34375 105.925781 155.21875 95.382812 " fill-opacity="1" fill-rule="nonzero"/><path fill="#c03d3d" d="M 164.007812 106.695312 C 160.730469 107.117188 156.910156 105.359375 155.738281 102.132812 C 159.082031 100.820312 163.628906 103.058594 164.007812 106.695312 " fill-opacity="1" fill-rule="nonzero"/><path fill="#ffffff" d="M 157.414062 98 C 157.414062 98 163.144531 102.503906 167.246094 103.472656 C 166.40625 104.5625 164.90625 105.296875 163.125 103.992188 C 162.738281 104.164062 161.144531 103.285156 160.988281 102.921875 C 160.640625 103 158.949219 102.046875 158.621094 101.519531 C 156.695312 100.617188 156.484375 99.566406 157.414062 98 " fill-opacity="1" fill-rule="nonzero"/><path fill="#d15050" d="M 155.144531 95.808594 C 154.707031 106.117188 162.53125 108.386719 170.507812 104.378906 C 162.886719 103.371094 157.570312 99.636719 155.144531 95.808594 Z M 154.40625 99 C 154.066406 96.160156 153.898438 92.550781 155.199219 93.90625 C 156.589844 97.121094 161.726562 102.78125 172.164062 103.609375 C 173.8125 104.300781 170.550781 105.480469 167.796875 106.441406 C 161.0625 108.726562 155.199219 105.914062 154.40625 99 " fill-opacity="1" fill-rule="nonzero"/><path fill="#ea8f68" d="M 155.375 109.191406 C 154.988281 108.710938 153.835938 108.105469 154.382812 107.464844 C 154.574219 107.316406 154.851562 107.34375 155 107.535156 C 156.035156 108.824219 157.867188 110.167969 159.453125 110.074219 C 160.019531 110.03125 160.078125 110.921875 159.503906 110.949219 C 158.078125 111.03125 156.558594 110.230469 155.375 109.191406 " fill-opacity="1" fill-rule="nonzero"/><path fill="#5c3c31" d="M 195.953125 89.804688 C 195.171875 88.019531 193.242188 85.199219 191.714844 84.433594 C 191.210938 84.160156 191.652344 83.386719 192.148438 83.671875 C 192.726562 83.507812 198.480469 89.984375 195.953125 89.804688 " fill-opacity="1" fill-rule="nonzero"/><path fill="#5c3c31" d="M 161.105469 64.644531 C 159.980469 62.386719 168.179688 65.285156 168.261719 65.90625 C 168.710938 66.257812 168.140625 66.949219 167.703125 66.585938 C 166.53125 65.527344 163.199219 64.675781 161.105469 64.644531 " fill-opacity="1" fill-rule="nonzero"/><path fill="#291815" d="M 165.015625 77.773438 C 162.121094 81.523438 156.371094 77.359375 159.164062 73.476562 C 162.058594 69.726562 167.808594 73.890625 165.015625 77.773438 " fill-opacity="1" fill-rule="nonzero"/><path fill="#291815" d="M 158.785156 74.570312 C 158.742188 74.539062 158.699219 74.496094 158.664062 74.449219 L 157.019531 72.164062 C 156.585938 71.582031 157.519531 70.929688 157.929688 71.519531 C 157.929688 71.519531 159.578125 73.804688 159.578125 73.804688 C 159.957031 74.300781 159.265625 74.949219 158.785156 74.570312 " fill-opacity="1" fill-rule="nonzero"/><path fill="#291815" d="M 160.789062 73.898438 C 160.742188 73.863281 160.703125 73.824219 160.667969 73.773438 L 159.019531 71.492188 C 158.589844 70.90625 159.523438 70.253906 159.933594 70.847656 C 159.933594 70.84375 161.578125 73.128906 161.578125 73.128906 C 161.960938 73.625 161.265625 74.273438 160.789062 73.898438 " fill-opacity="1" fill-rule="nonzero"/><path fill="#291815" d="M 182.882812 89.464844 C 180.089844 93.347656 185.84375 97.511719 188.738281 93.761719 C 191.53125 89.878906 185.777344 85.714844 182.882812 89.464844 " fill-opacity="1" fill-rule="nonzero"/><path fill="#291815" d="M 187.789062 94.4375 C 187.832031 94.472656 187.882812 94.5 187.941406 94.519531 L 190.625 95.414062 C 191.308594 95.65625 191.679688 94.585938 190.984375 94.363281 L 188.300781 93.464844 C 187.71875 93.25 187.277344 94.089844 187.789062 94.4375 " fill-opacity="1" fill-rule="nonzero"/><path fill="#291815" d="M 187.859375 92.34375 C 187.90625 92.378906 187.957031 92.40625 188.015625 92.421875 L 190.699219 93.320312 C 191.378906 93.5625 191.75 92.492188 191.054688 92.269531 L 188.375 91.371094 C 187.789062 91.15625 187.351562 91.996094 187.859375 92.34375 " fill-opacity="1" fill-rule="nonzero"/><path fill="#f0916f" d="M 156.734375 84.199219 C 154.855469 87.21875 145.523438 80.394531 147.886719 77.703125 C 151.742188 73.519531 159.667969 79.253906 156.734375 84.199219 " fill-opacity="1" fill-rule="nonzero"/><path fill="#f0916f" d="M 185.375 107.3125 C 174.570312 101.046875 186.441406 96.042969 190.164062 103.195312 C 188.628906 104.632812 187.015625 106.039062 185.375 107.3125 " fill-opacity="1" fill-rule="nonzero"/><path fill="#ea8f68" d="M 203.265625 87.53125 C 201.824219 89.792969 200.128906 92.179688 198.21875 94.554688 C 203.925781 74.578125 191.660156 56.425781 192.269531 46.808594 C 186.964844 54.152344 162.109375 63.558594 139.101562 69.113281 C 157.671875 12.15625 226.171875 47.425781 203.265625 87.53125 " fill-opacity="1" fill-rule="nonzero"/><path fill="#7a4f42" d="M 183.90625 108.441406 C 218.535156 78.566406 193.566406 59.398438 194.421875 45.875 C 190.78125 47.496094 149.300781 71.125 125.394531 70.121094 C 139.480469 58.449219 166.605469 16.710938 197.667969 42.125 C 208.335938 43.039062 237.597656 70.082031 210.945312 93.277344 C 198.03125 104.523438 178.683594 120.570312 173.167969 123.058594 C 172.515625 123.351562 178.679688 112.949219 183.90625 108.441406 " fill-opacity="1" fill-rule="nonzero"/><path fill="#5c3c31" d="M 189.101562 41.03125 C 186.839844 41.226562 184.890625 42.699219 182.894531 43.609375 C 177.023438 46.730469 170.5 47.976562 163.976562 48.914062 C 173.957031 50.664062 181.363281 46.667969 189.101562 41.03125 " fill-opacity="1" fill-rule="nonzero"/><path fill="#5c3c31" d="M 210.988281 53.097656 C 209.640625 63.046875 219.933594 70.5625 218.449219 80.429688 C 222.136719 71.023438 212.332031 62.085938 210.988281 53.097656 " fill-opacity="1" fill-rule="nonzero"/><path fill="#5c3c31" d="M 177.746094 118.914062 C 182.703125 112.382812 190.894531 109.542969 197.144531 104.53125 C 209.320312 95.859375 210.4375 82.277344 207.691406 68.652344 C 212.523438 84.558594 209.605469 99.082031 194.503906 107.8125 C 188.941406 111.433594 182.28125 113.917969 177.746094 118.914062 " fill-opacity="1" fill-rule="nonzero"/><path fill="#ffad8a" d="M 149.34375 250.730469 C 153.148438 255.925781 161.445312 266.78125 188.027344 281.625 C 191.390625 283.5 197.371094 286.410156 199.957031 288.015625 C 208.222656 293.183594 214.996094 282.941406 210.605469 279.238281 L 210.59375 279.207031 L 210.5625 279.214844 C 203.941406 270.90625 177.988281 258.917969 169.90625 246.230469 C 166.777344 241.457031 160.855469 238.585938 156.832031 235.019531 C 152.203125 231.738281 154.136719 233.199219 151.851562 233.613281 C 148.125 235.117188 144.917969 245.910156 149.34375 250.730469 " fill-opacity="1" fill-rule="nonzero"/><path fill="#ea8f68" d="M 200.988281 288.65625 C 199.5 287.679688 193.597656 284.667969 191.925781 283.699219 C 198.191406 283.195312 204.21875 277.722656 206.199219 275.074219 C 209.527344 277.457031 208.957031 277.65625 210.613281 279.226562 C 210.679688 279.226562 210.710938 279.261719 210.78125 279.257812 C 214.101562 282.847656 209.914062 292.003906 200.988281 288.65625 " fill-opacity="1" fill-rule="nonzero"/><path fill="#ea8f68" d="M 235.121094 287.519531 C 233.816406 284.101562 231.078125 280.996094 227.6875 279.574219 C 224.769531 279.199219 222.207031 277.621094 219.089844 277.382812 C 216.476562 277.042969 212.21875 277.84375 213.027344 281.375 C 213.429688 283.003906 215.082031 283.996094 216.710938 283.59375 C 217.378906 283.378906 218.011719 283.226562 218.742188 283.242188 C 221.402344 283.339844 224.078125 284.644531 226.902344 284.757812 L 226.023438 284.515625 C 228.253906 285.300781 230.332031 286.894531 231.535156 288.878906 C 232.386719 291.21875 236.035156 289.828125 235.121094 287.519531 " fill-opacity="1" fill-rule="nonzero"/><path fill="#ebdcce" d="M 225 297.160156 C 224.886719 296.957031 224.757812 296.769531 224.625 296.59375 C 223.800781 295.503906 223.859375 293.980469 224.726562 292.921875 L 235.125 280.238281 C 235.992188 279.179688 237.476562 278.824219 238.707031 279.417969 C 238.828125 279.476562 238.953125 279.53125 239.082031 279.582031 C 240.515625 280.144531 242.152344 279.945312 243.417969 279.066406 C 246.195312 277.132812 246.195312 273.316406 243.789062 271.347656 C 242.574219 270.351562 241.011719 270.050781 239.589844 270.402344 C 238.910156 270.570312 238.269531 270.042969 238.300781 269.339844 C 238.378906 267.566406 237.476562 265.777344 235.675781 264.839844 C 234.003906 263.96875 231.949219 264.183594 230.492188 265.378906 C 228.054688 267.375 228.152344 270.953125 230.457031 272.84375 L 230.519531 272.894531 C 230.9375 273.234375 231 273.859375 230.65625 274.277344 L 219.128906 288.339844 C 218.261719 289.398438 216.78125 289.753906 215.550781 289.160156 C 215.429688 289.101562 215.308594 289.046875 215.179688 288.996094 C 213.746094 288.429688 212.105469 288.628906 210.839844 289.511719 C 208.0625 291.441406 208.0625 295.257812 210.464844 297.226562 C 211.679688 298.222656 213.226562 298.523438 214.640625 298.179688 C 215.324219 298.015625 215.984375 298.558594 215.957031 299.257812 C 215.898438 300.710938 216.5 302.171875 217.710938 303.164062 C 220.222656 305.222656 224.199219 304.308594 225.375 300.851562 C 225.792969 299.628906 225.648438 298.277344 225 297.160156 " fill-opacity="1" fill-rule="nonzero"/><path fill="#ffad8a" d="M 200.25 288.730469 C 203.367188 295.101562 211.792969 298.71875 214.320312 300.648438 C 216.546875 302.34375 220.835938 301.878906 220.882812 300.417969 C 222.714844 301.453125 227.332031 302.277344 228.277344 298.960938 C 230.535156 299.867188 232.53125 297.839844 233.136719 296.121094 C 234.046875 296.511719 235.152344 295.847656 235.617188 295.394531 C 240.148438 290.144531 227.335938 283.371094 223.957031 280.078125 C 218.65625 275.992188 216.667969 276.253906 207.421875 276.261719 C 206.832031 275.714844 197.917969 286.660156 200.25 288.730469 " fill-opacity="1" fill-rule="nonzero"/><path fill="#ea8f68" d="M 233.136719 296.121094 C 231.253906 294.640625 229.195312 293.335938 227.371094 291.78125 C 228.40625 294.046875 230.761719 295.570312 233.136719 296.121094 " fill-opacity="1" fill-rule="nonzero"/><path fill="#ea8f68" d="M 228.277344 298.960938 C 227.089844 297.457031 225.460938 296.449219 223.800781 295.554688 C 224.734375 297.210938 226.515625 298.328125 228.277344 298.960938 " fill-opacity="1" fill-rule="nonzero"/><path fill="#ea8f68" d="M 220.882812 300.417969 C 220.03125 299.042969 218.6875 298.167969 217.632812 296.992188 C 217.726562 298.660156 219.410156 299.902344 220.882812 300.417969 " fill-opacity="1" fill-rule="nonzero"/><path fill="#3b4d96" d="M 198.578125 269.589844 C 195.984375 271.441406 190.109375 277.851562 188.367188 281.019531 C 170.597656 280.570312 126.671875 257.167969 113.300781 246.238281 C 102.320312 234.714844 80.03125 168.75 75.699219 152.207031 C 71.933594 127.4375 105.058594 118.3125 115.742188 137.207031 C 126.542969 163.808594 130.9375 192.914062 139.566406 220.386719 C 159.160156 232.496094 191.953125 252.773438 198.578125 269.589844 " fill-opacity="1" fill-rule="nonzero"/><path fill="#31357d" d="M 198.578125 269.589844 C 195.785156 271.546875 189.792969 278.300781 188.027344 281.625 C 187.054688 281.980469 185.535156 281.367188 183.023438 280.375 C 185.804688 275.140625 192.25 268.457031 196.363281 265.261719 C 198.195312 267.011719 198.65625 268.230469 198.578125 269.589844 " fill-opacity="1" fill-rule="nonzero"/><path fill="#d1b349" d="M 60.394531 356.976562 C 65.648438 344.042969 92.703125 343.257812 92.628906 343.445312 C 92.628906 343.445312 101.324219 344.691406 93.867188 356.105469 C 91.949219 359.042969 85.972656 355.023438 85.378906 352.761719 C 83.230469 354.902344 71.761719 356.089844 60.394531 356.976562 " fill-opacity="1" fill-rule="nonzero"/><path fill="#ffdb59" d="M 36.644531 354.90625 C 33.726562 345.371094 61.96875 334.699219 68.683594 330.828125 C 74.039062 328.363281 79.03125 325.1875 83.476562 321.300781 C 88.675781 316.75 91.785156 313.070312 97.25 314.015625 C 104.960938 316.125 111 332.347656 108.113281 337.507812 C 108.113281 337.507812 96.988281 333.4375 92.273438 344.203125 C 87.621094 344.582031 66.382812 346.851562 60.394531 356.976562 C 58.21875 357.148438 56.042969 357.304688 53.941406 357.457031 C 46.828125 358.378906 39.921875 363.589844 36.644531 354.90625 " fill-opacity="1" fill-rule="nonzero"/><path fill="#404366" d="M 36.644531 354.90625 C 34.527344 341.6875 72.691406 331.78125 82.84375 320.835938 C 89.714844 314.085938 97.035156 309.914062 103.210938 318.648438 C 103.210938 318.648438 92.714844 320.050781 77.6875 330.933594 C 67.53125 338.210938 47.769531 343.449219 36.644531 354.90625 " fill-opacity="1" fill-rule="nonzero"/><path fill="#31357d" d="M 84.574219 341.570312 C 84.859375 341.394531 85.238281 341.5 85.40625 341.800781 C 88.117188 346.625 85.484375 353.007812 84.921875 354.269531 L 84.085938 354.535156 C 83.921875 354.4375 83.664062 354.140625 83.851562 353.722656 C 84.117188 353.125 84.78125 351.515625 85.160156 349.492188 C 85.695312 346.632812 85.433594 344.238281 84.382812 342.375 C 84.21875 342.089844 84.308594 341.734375 84.574219 341.570312 " fill-opacity="1" fill-rule="nonzero"/><path fill="#31357d" d="M 79.304688 342.582031 C 79.585938 342.40625 79.964844 342.511719 80.132812 342.8125 C 82.839844 347.621094 80.378906 354.226562 79.847656 355.535156 L 79.027344 355.832031 C 78.859375 355.738281 78.585938 355.453125 78.761719 355.023438 C 79.015625 354.402344 79.636719 352.730469 79.976562 350.644531 C 80.457031 347.695312 80.164062 345.253906 79.109375 343.382812 C 78.949219 343.101562 79.035156 342.746094 79.304688 342.582031 " fill-opacity="1" fill-rule="nonzero"/><path fill="#31357d" d="M 73.3125 344 C 73.601562 343.816406 73.992188 343.933594 74.152344 344.246094 C 76.523438 348.210938 75.132812 357.195312 73.394531 356.601562 C 73.3125 356.554688 72.929688 356.308594 73.140625 355.773438 C 73.707031 354.304688 75.390625 349.183594 73.109375 344.78125 C 72.960938 344.496094 73.050781 344.15625 73.3125 344 " fill-opacity="1" fill-rule="nonzero"/><path fill="#ccb39b" d="M 283.90625 301.480469 C 281.375 310.371094 271.949219 311.046875 267.015625 310.785156 C 266.988281 310.761719 266.964844 310.742188 266.941406 310.722656 C 262.644531 311.894531 256.371094 306.746094 253.757812 307.375 C 245.597656 309.34375 250.839844 311.886719 250.839844 311.886719 C 249.144531 315.707031 253.738281 315.117188 255.414062 317.398438 C 257.207031 319.84375 258.175781 318.066406 263.53125 319.921875 C 264.476562 320.25 265.503906 320.21875 266.4375 319.859375 C 267.921875 319.285156 273.792969 319.007812 275.355469 318.617188 C 286.101562 315.695312 292.941406 318.164062 301.96875 316.347656 C 307.0625 315.054688 311.769531 311.078125 313.277344 305.617188 C 317.757812 289.40625 290.070312 278.914062 283.90625 301.480469 " fill-opacity="1" fill-rule="nonzero"/><path fill="#33322f" d="M 250.753906 312.097656 C 250.761719 312.101562 250.769531 312.101562 250.777344 312.105469 C 250.894531 312.140625 251.019531 312.070312 251.054688 311.953125 C 251.066406 311.925781 251.578125 310.582031 255.179688 311.574219 C 255.300781 311.605469 255.421875 311.535156 255.457031 311.417969 C 255.488281 311.296875 255.417969 311.171875 255.300781 311.136719 C 251.203125 310.011719 250.644531 311.75 250.621094 311.824219 C 250.589844 311.9375 250.648438 312.054688 250.753906 312.097656 " fill-opacity="1" fill-rule="nonzero"/><path fill="#33322f" d="M 254.632812 316.523438 C 254.636719 316.527344 254.640625 316.527344 254.644531 316.527344 C 254.765625 316.566406 254.890625 316.503906 254.929688 316.382812 C 254.957031 316.304688 255.613281 314.4375 258.515625 315 C 258.636719 315.023438 258.757812 314.941406 258.78125 314.820312 C 258.804688 314.699219 258.722656 314.578125 258.601562 314.558594 C 256.890625 314.226562 255.871094 314.691406 255.3125 315.140625 C 254.703125 315.640625 254.507812 316.222656 254.5 316.246094 C 254.464844 316.359375 254.523438 316.480469 254.632812 316.523438 " fill-opacity="1" fill-rule="nonzero"/><path fill="#ccb39b" d="M 283.375 355.933594 C 283.597656 360.109375 287.425781 357.496094 289.953125 358.769531 C 292.664062 360.132812 296.671875 356.320312 302.285156 355.542969 C 304.941406 355.09375 306.191406 352.269531 308.277344 350.800781 C 305.675781 348.117188 302.171875 347.214844 296.570312 345.855469 C 291.800781 352.386719 285.96875 348.839844 283.925781 350.589844 C 277.550781 356.046875 283.375 355.933594 283.375 355.933594 " fill-opacity="1" fill-rule="nonzero"/><path fill="#33322f" d="M 283.402344 356.15625 C 283.996094 355.742188 282.941406 354.628906 287.101562 353.683594 C 287.386719 353.628906 287.296875 353.179688 287.007812 353.242188 C 282.789062 354.136719 282.84375 356.054688 283.402344 356.15625 " fill-opacity="1" fill-rule="nonzero"/><path fill="#33322f" d="M 288.867188 358.34375 C 289.445312 357.992188 288.347656 356.242188 291.628906 355.222656 C 291.910156 355.148438 291.78125 354.703125 291.503906 354.789062 C 289.828125 355.269531 289.128906 356.148438 288.839844 356.804688 C 288.53125 357.699219 288.445312 358.292969 288.867188 358.34375 " fill-opacity="1" fill-rule="nonzero"/><path fill="#7a4f42" d="M 295.996094 253.71875 L 290.4375 244.808594 L 281.671875 244.023438 L 286.742188 256.511719 L 295.996094 253.71875 " fill-opacity="1" fill-rule="nonzero"/><path fill="#ba6433" d="M 290.4375 244.808594 C 290.4375 244.808594 286.769531 248.605469 285.386719 251.292969 C 282.191406 257.511719 279.503906 252.960938 278.957031 250.453125 C 278.410156 247.945312 282.105469 243.738281 282.105469 243.738281 L 290.4375 244.808594 " fill-opacity="1" fill-rule="nonzero"/><g clip-path="url(#id1)"><path fill="#dbc5af" d="M 357.644531 370.292969 C 357.339844 371.230469 356.964844 372.160156 356.519531 373.082031 C 355.136719 375.9375 348.222656 376.109375 350.617188 369.972656 C 350.652344 369.875 350.691406 369.78125 350.734375 369.6875 C 350.804688 369.511719 350.886719 369.332031 350.972656 369.148438 C 351.160156 368.769531 351.328125 368.386719 351.484375 368.003906 C 356.578125 355.597656 347.742188 343.109375 338.953125 338.792969 C 337.988281 338.320312 337.019531 337.941406 336.070312 337.675781 C 328.714844 344.21875 319.355469 333.738281 325.535156 325.929688 C 331.429688 318.9375 339.546875 323.96875 343.394531 329.515625 C 343.492188 329.652344 343.589844 329.792969 343.6875 329.933594 C 350.847656 340.207031 362.449219 355.699219 357.644531 370.292969 " fill-opacity="1" fill-rule="nonzero"/></g><g clip-path="url(#id2)"><path fill="#7a4f42" d="M 350.617188 369.972656 L 357.644531 370.292969 C 362.449219 355.699219 350.847656 340.207031 343.6875 329.933594 L 338.339844 334.113281 L 338.953125 338.792969 C 347.742188 343.109375 356.578125 355.597656 351.484375 368.003906 C 353.777344 367.738281 354.863281 369.097656 354.863281 369.097656 L 350.734375 369.6875 L 350.617188 369.972656 " fill-opacity="1" fill-rule="nonzero"/></g><path fill="#f7e8d9" d="M 345.644531 331.523438 C 345.628906 331.8125 345.59375 332.097656 345.539062 332.382812 C 344.363281 338.460938 334.914062 343.183594 329.199219 349.203125 C 325.007812 353.679688 322.742188 354.722656 318.609375 355.207031 C 317.230469 355.371094 315.644531 355.46875 313.710938 355.609375 C 312.972656 355.664062 312.257812 355.675781 311.5625 355.648438 C 311.226562 355.636719 310.894531 355.613281 310.566406 355.582031 C 301.105469 354.667969 295.570312 346.277344 292.609375 337.902344 C 291.710938 335.339844 290.722656 332.855469 289.71875 330.4375 C 289.589844 330.125 289.402344 329.820312 289.175781 329.523438 C 287.34375 327.128906 282.726562 325.148438 281.664062 322.78125 C 281.652344 322.761719 281.644531 322.742188 281.636719 322.722656 C 277.621094 313.210938 278.527344 304 281.273438 295.03125 C 281.453125 294.445312 281.640625 293.859375 281.835938 293.273438 C 271.53125 292.128906 264.238281 282.039062 261.480469 272.765625 C 258.988281 265.65625 263.515625 258.039062 270.636719 256.597656 L 299.632812 249.832031 C 306.417969 248.410156 313.449219 251.957031 315.890625 258.449219 C 316.777344 260.792969 314.117188 278.417969 317.246094 289.273438 C 317.960938 291.761719 318.675781 294.003906 319.382812 296.023438 C 327.4375 319.03125 334.917969 313.574219 343.910156 326.296875 C 344.25 326.773438 344.53125 327.238281 344.765625 327.695312 C 345.457031 329.042969 345.71875 330.3125 345.644531 331.523438 " fill-opacity="1" fill-rule="nonzero"/><path fill="#dbc5af" d="M 312.417969 346.910156 C 303.34375 347.230469 294.488281 333.625 294.488281 328.550781 C 294.488281 323.476562 286.789062 323.542969 282.285156 314.839844 C 280.710938 311.800781 280.257812 307.691406 280.359375 304.058594 C 280.449219 300.71875 282.425781 297.714844 285.457031 296.308594 C 292.042969 293.257812 298.050781 288.839844 302.140625 282.859375 L 301.738281 282.519531 C 296.324219 288.15625 288.921875 291.558594 281.316406 293.222656 C 281.488281 293.242188 281.664062 293.257812 281.835938 293.273438 C 281.675781 293.828125 281.527344 294.402344 281.390625 294.984375 C 281.351562 295 281.3125 295.015625 281.273438 295.03125 C 278.527344 304 277.621094 313.210938 281.636719 322.722656 C 281.644531 322.742188 281.652344 322.761719 281.664062 322.78125 C 282.726562 325.148438 287.34375 327.128906 289.175781 329.523438 C 289.40625 329.820312 289.589844 330.125 289.71875 330.4375 C 290.722656 332.855469 291.707031 335.339844 292.605469 337.902344 C 295.574219 346.277344 301.105469 354.667969 310.570312 355.582031 C 311.570312 355.679688 312.617188 355.691406 313.710938 355.609375 C 315.648438 355.46875 317.230469 355.371094 318.609375 355.207031 L 312.417969 346.910156 " fill-opacity="1" fill-rule="nonzero"/><path fill="#ba6433" d="M 306.121094 257.933594 C 304.976562 254.488281 298.484375 253.027344 295.222656 256.945312 C 291.964844 260.863281 294.167969 262.296875 291.242188 262.59375 C 280.667969 263.660156 279.34375 279.113281 291.148438 275.015625 C 296.390625 273.199219 299.796875 272.460938 302.542969 272.277344 C 305.804688 272.0625 308.035156 268.902344 307.105469 265.765625 C 306.25 262.871094 306.988281 260.539062 306.121094 257.933594 " fill-opacity="1" fill-rule="nonzero"/><path fill="#ffffff" d="M 295.023438 261.285156 C 291.390625 269.710938 298.667969 272.949219 302.496094 264.605469 C 306.128906 256.179688 298.847656 252.945312 295.023438 261.285156 " fill-opacity="1" fill-rule="nonzero"/><path fill="#33322f" d="M 296.359375 260.371094 C 294.058594 265.734375 299.238281 268.039062 301.679688 262.738281 C 303.988281 257.371094 298.804688 255.066406 296.359375 260.371094 " fill-opacity="1" fill-rule="nonzero"/><path fill="#33322f" d="M 270.96875 288.144531 C 272.035156 289.089844 273.160156 289.9375 274.332031 290.660156 C 279.789062 289.519531 285.121094 287.308594 288.3125 282.808594 C 283.851562 287.339844 277.199219 288.265625 270.96875 288.144531 " fill-opacity="1" fill-rule="nonzero"/><path fill="#7a4f42" d="M 310.273438 251.792969 C 308.398438 257.414062 311.683594 261.222656 313.5 260.761719 C 315.316406 260.300781 326.738281 253.257812 326.738281 253.257812 L 319.089844 242.617188 L 310.273438 251.792969 " fill-opacity="1" fill-rule="nonzero"/><path fill="#ba6433" d="M 319.089844 242.617188 L 326.738281 253.257812 C 326.738281 253.257812 325.273438 266.765625 322.625 265.363281 C 315.097656 261.382812 319.089844 242.617188 319.089844 242.617188 " fill-opacity="1" fill-rule="nonzero"/><path fill="#dbc5af" d="M 340.769531 339.292969 C 339.597656 345.378906 334.914062 343.183594 329.199219 349.203125 C 323.613281 355.167969 321.449219 355.039062 313.710938 355.609375 C 312.617188 355.691406 311.570312 355.679688 310.570312 355.582031 C 312.074219 353.167969 312.65625 349.746094 311.5 344.71875 C 306.132812 322.488281 335.507812 318.847656 340.769531 339.292969 " fill-opacity="1" fill-rule="nonzero"/><path fill="#f7e8d9" d="M 342.261719 348.519531 C 335.226562 354.460938 328.042969 355.597656 320.039062 363.335938 C 318.003906 364.867188 316.839844 367.734375 314.199219 368.265625 C 308.617188 369.21875 305.089844 369.296875 302.242188 370.339844 C 298.761719 371.613281 295.679688 372.542969 295.3125 369.261719 C 295.3125 369.261719 289.496094 369.558594 295.695312 363.898438 C 297.683594 362.089844 303.953125 368.3125 306.75 359.585938 C 308.640625 358.671875 310.367188 357.449219 311.5625 355.648438 C 313.175781 353.21875 313.828125 349.742188 312.640625 344.558594 C 309.878906 333.117188 317.585938 324.765625 326.433594 322.148438 C 333.320312 320.109375 340.902344 321.542969 344.765625 327.695312 C 345.429688 328.75 345.984375 329.941406 346.40625 331.277344 C 346.644531 332.027344 346.839844 332.824219 346.988281 333.667969 C 347.691406 339.289062 346.101562 344.933594 342.261719 348.519531 " fill-opacity="1" fill-rule="nonzero"/><path fill="#ba6433" d="M 295.3125 369.261719 C 295.671875 373.425781 299.414062 370.691406 301.980469 371.882812 C 304.730469 373.160156 308.617188 369.21875 314.199219 368.265625 C 315.1875 368.097656 316.074219 367.574219 316.714844 366.808594 C 317.742188 365.585938 318.863281 364.429688 320.039062 363.335938 C 310.148438 365.210938 312.386719 360.765625 306.746094 359.585938 C 302.1875 366.265625 297.679688 362.089844 295.691406 363.898438 C 289.492188 369.558594 295.3125 369.261719 295.3125 369.261719 " fill-opacity="1" fill-rule="nonzero"/><path fill="#33322f" d="M 295.339844 369.484375 C 295.347656 369.484375 295.355469 369.480469 295.359375 369.480469 C 295.480469 369.453125 295.558594 369.335938 295.53125 369.214844 C 295.527344 369.183594 295.332031 367.757812 298.964844 366.894531 C 299.085938 366.863281 299.160156 366.742188 299.128906 366.621094 C 299.101562 366.5 298.980469 366.425781 298.859375 366.453125 C 294.726562 367.441406 295.074219 369.234375 295.089844 369.308594 C 295.117188 369.425781 295.226562 369.5 295.339844 369.484375 " fill-opacity="1" fill-rule="nonzero"/><path fill="#33322f" d="M 300.871094 371.492188 C 300.878906 371.492188 300.882812 371.492188 300.886719 371.492188 C 301.007812 371.46875 301.089844 371.351562 301.066406 371.226562 C 301.050781 371.144531 300.726562 369.191406 303.539062 368.285156 C 303.65625 368.246094 303.722656 368.121094 303.683594 368.003906 C 303.648438 367.882812 303.519531 367.816406 303.402344 367.855469 C 301.742188 368.390625 301.074219 369.292969 300.804688 369.953125 C 300.507812 370.683594 300.617188 371.285156 300.621094 371.3125 C 300.644531 371.429688 300.757812 371.507812 300.871094 371.492188 " fill-opacity="1" fill-rule="nonzero"/><path fill="#dbc5af" d="M 313.390625 313.382812 C 312.613281 318.996094 310.738281 323.234375 305.859375 325.183594 C 298.539062 327.691406 297.601562 328.167969 289.722656 330.4375 C 288.542969 327.597656 287.332031 324.84375 286.199219 322.152344 C 288.683594 320.445312 290.679688 317.867188 291.25 313.980469 C 294.394531 290.804688 315.699219 296.726562 313.390625 313.382812 " fill-opacity="1" fill-rule="nonzero"/><path fill="#dbc5af" d="M 310.148438 313.21875 C 309.371094 318.832031 306.445312 318.074219 301.5625 320.023438 C 295.03125 322.257812 295.917969 328 289.179688 329.523438 C 289.175781 329.523438 289.175781 329.523438 289.175781 329.523438 C 287.347656 327.128906 282.730469 325.148438 281.664062 322.78125 C 284.820312 321.125 288.511719 319.167969 289.089844 314.515625 C 291.035156 298.804688 312.460938 296.5625 310.148438 313.21875 " fill-opacity="1" fill-rule="nonzero"/><path fill="#f7e8d9" d="M 290.492188 313.21875 C 289.148438 322.367188 279.894531 324.273438 274.96875 324.660156 C 274.941406 324.644531 274.914062 324.628906 274.886719 324.609375 C 270.847656 326.3125 264.113281 322.195312 261.507812 322.984375 C 261.464844 322.996094 261.421875 323.007812 261.378906 323.023438 C 253.546875 326.046875 259.078125 327.878906 259.078125 327.878906 C 257.898438 331.890625 262.375 330.703125 264.335938 332.742188 C 266.4375 334.929688 267.164062 333.042969 272.714844 334.179688 C 273.695312 334.378906 274.710938 334.210938 275.585938 333.734375 C 276.988281 332.96875 282.769531 331.925781 284.265625 331.332031 C 284.265625 331.332031 284.265625 331.328125 284.269531 331.328125 C 294.535156 327.023438 297.148438 326.058594 305.859375 323.078125 C 310.738281 321.125 314.878906 316.5625 315.660156 310.953125 C 317.96875 294.296875 293.636719 290.042969 290.492188 313.21875 " fill-opacity="1" fill-rule="nonzero"/><path fill="#33322f" d="M 259.023438 328.101562 C 259.027344 328.101562 259.035156 328.101562 259.042969 328.105469 C 259.164062 328.121094 259.277344 328.039062 259.296875 327.917969 C 259.304688 327.886719 259.636719 326.488281 263.339844 327 C 263.460938 327.015625 263.574219 326.929688 263.589844 326.804688 C 263.609375 326.683594 263.523438 326.570312 263.398438 326.550781 C 259.191406 325.972656 258.863281 327.769531 258.851562 327.847656 C 258.835938 327.960938 258.910156 328.070312 259.023438 328.101562 " fill-opacity="1" fill-rule="nonzero"/><path fill="#33322f" d="M 263.449219 331.976562 C 263.453125 331.980469 263.457031 331.980469 263.464844 331.980469 C 263.585938 332.003906 263.703125 331.921875 263.722656 331.800781 C 263.742188 331.71875 264.148438 329.78125 267.097656 329.957031 C 267.222656 329.964844 267.328125 329.867188 267.335938 329.746094 C 267.34375 329.621094 267.25 329.515625 267.125 329.507812 C 265.382812 329.402344 264.433594 330 263.941406 330.519531 C 263.402344 331.089844 263.285156 331.691406 263.28125 331.71875 C 263.257812 331.835938 263.332031 331.949219 263.449219 331.976562 " fill-opacity="1" fill-rule="nonzero"/><path fill="#ba6433" d="M 346.402344 331.277344 C 346.160156 331.367188 345.90625 331.449219 345.644531 331.523438 C 340.839844 332.9375 333.585938 332.335938 329.75 326.988281 C 328.410156 325.113281 327.445312 323.523438 326.429688 322.148438 C 325.242188 320.53125 323.984375 319.214844 321.976562 318.078125 C 318.25 315.972656 318.410156 314.03125 317.761719 308.039062 C 317.292969 303.679688 316.652344 297.957031 319.382812 296.023438 C 320.046875 297.929688 320.710938 299.636719 321.371094 301.179688 C 325.957031 311.878906 330.410156 314.449219 335.125 317.75 C 337.933594 319.71875 340.835938 321.941406 343.914062 326.296875 C 344.25 326.773438 344.53125 327.238281 344.765625 327.695312 C 345.429688 328.75 345.980469 329.941406 346.402344 331.277344 " fill-opacity="1" fill-rule="nonzero"/><path fill="#7a4f42" d="M 335.128906 317.75 C 331.660156 318.523438 323.863281 314.085938 321.816406 311.058594 C 319.851562 308.160156 320.804688 304.769531 321.375 301.179688 C 325.957031 311.878906 330.410156 314.449219 335.128906 317.75 " fill-opacity="1" fill-rule="nonzero"/><path fill="#33322f" d="M 275.394531 264.21875 C 273.664062 267.242188 268.5625 265.769531 267.042969 267.714844 C 265.53125 269.660156 264.957031 274.242188 261.484375 272.765625 C 257.671875 270.453125 257.449219 265.933594 258.925781 262.382812 C 260.058594 259.652344 262.191406 257.492188 264.464844 257.34375 C 265.722656 257.257812 266.921875 257.316406 268.039062 257.492188 C 273.398438 258.308594 276.828125 261.703125 275.394531 264.21875 " fill-opacity="1" fill-rule="nonzero"/><path fill="#505154" d="M 258.925781 262.382812 C 259.152344 261.839844 259.417969 261.316406 259.71875 260.828125 C 260.011719 260.34375 260.34375 259.894531 260.699219 259.488281 C 261.125 258.996094 261.59375 258.570312 262.089844 258.230469 C 262.769531 257.761719 263.5 257.453125 264.25 257.363281 C 264.253906 257.363281 264.253906 257.363281 264.253906 257.363281 C 264.324219 257.355469 264.390625 257.347656 264.464844 257.34375 C 265.722656 257.257812 266.921875 257.316406 268.039062 257.492188 C 268.421875 258.171875 268.703125 258.84375 268.835938 259.449219 C 269.363281 261.808594 262.875 263.53125 258.925781 262.382812 " fill-opacity="1" fill-rule="nonzero"/><path fill="#ccd1d6" d="M 264.464844 259.527344 C 264.464844 260.289062 262.867188 260.90625 260.902344 260.90625 C 260.488281 260.90625 260.085938 260.878906 259.71875 260.828125 C 260.015625 260.34375 260.34375 259.894531 260.699219 259.488281 C 261.128906 258.996094 261.597656 258.570312 262.089844 258.230469 C 263.476562 258.421875 264.464844 258.929688 264.464844 259.527344 " fill-opacity="1" fill-rule="nonzero"/><path fill="#ffad8a" d="M 266.058594 241.875 C 265.667969 240.335938 265.328125 237.867188 265.175781 236.90625 C 265.011719 235.949219 265.992188 234.183594 266.53125 233.371094 C 268.445312 230.847656 272.503906 227.210938 275.78125 228.996094 C 282.566406 233.125 302.132812 239.261719 300.851562 242.402344 C 303.679688 244.613281 303.226562 246.296875 302.792969 246.101562 C 306.367188 248.898438 305.652344 250.777344 304.609375 250.671875 C 305.722656 252.398438 304.691406 253.820312 303.535156 253.425781 C 300.609375 252.425781 296.367188 250.558594 291.484375 248.144531 C 286.234375 246.921875 282.820312 245.480469 277.433594 244.546875 C 276.710938 249.289062 286.890625 258.777344 285.292969 259.800781 C 282.953125 260.832031 267.234375 246.792969 266.058594 241.875 " fill-opacity="1" fill-rule="nonzero"/><path fill="#ea8f68" d="M 274.050781 241.144531 L 277.414062 245.871094 C 277.316406 245.371094 277.316406 244.925781 277.433594 244.550781 C 278.824219 244.808594 280.007812 245.066406 281.054688 245.3125 L 274.050781 241.144531 " fill-opacity="1" fill-rule="nonzero"/><path fill="#ea8f68" d="M 285.476562 242.441406 C 287.953125 243.421875 290.519531 244.160156 293.09375 244.832031 L 293 244.792969 C 296.046875 246.507812 299.125 248.167969 302.304688 249.628906 C 299.390625 247.632812 296.375 245.792969 293.296875 244.070312 C 290.71875 243.402344 288.121094 242.796875 285.476562 242.441406 " fill-opacity="1" fill-rule="nonzero"/><path fill="#ea8f68" d="M 287.941406 239.433594 C 290.234375 240.335938 292.605469 240.996094 294.992188 241.589844 L 294.863281 241.53125 C 296.980469 242.964844 299.140625 244.34375 301.410156 245.53125 C 295.964844 240.910156 295.097656 240.304688 287.941406 239.433594 " fill-opacity="1" fill-rule="nonzero"/><path fill="#ea8f68" d="M 291.238281 237.554688 C 292.597656 238.089844 294.007812 238.480469 295.425781 238.835938 L 295.347656 238.800781 C 297.144531 240.054688 298.960938 241.289062 300.851562 242.40625 C 299.140625 240.988281 297.371094 239.636719 295.542969 238.382812 C 294.125 238.035156 292.691406 237.71875 291.238281 237.554688 " fill-opacity="1" fill-rule="nonzero"/></svg>