<svg xmlns="http://www.w3.org/2000/svg" xmlns:xlink="http://www.w3.org/1999/xlink" width="500" zoomAndPan="magnify" viewBox="0 0 375 374.999991" height="500" preserveAspectRatio="xMidYMid meet" version="1.0"><defs><g/></defs><g fill="#a49e9e" fill-opacity="1"><g transform="translate(131.819485, 153.533533)"><g><path d="M 14.5625 -35.46875 C 18 -35.46875 20.796875 -34.640625 22.953125 -32.984375 C 25.117188 -31.335938 26.203125 -29.078125 26.203125 -26.203125 C 26.203125 -24.285156 25.613281 -22.351562 24.4375 -20.40625 C 23.269531 -18.457031 21.859375 -16.507812 20.203125 -14.5625 C 17.398438 -11.195312 15.039062 -8.554688 13.125 -6.640625 L 13.125 -6.34375 L 26.9375 -6.640625 L 26.9375 0 L 1.984375 0 L 1.984375 -5.59375 C 4.421875 -7.96875 7.207031 -10.90625 10.34375 -14.40625 C 13.488281 -17.90625 15.617188 -20.472656 16.734375 -22.109375 C 17.859375 -23.742188 18.421875 -25.191406 18.421875 -26.453125 C 18.421875 -27.898438 17.429688 -28.625 15.453125 -28.625 C 14.097656 -28.625 12.394531 -28.253906 10.34375 -27.515625 C 8.300781 -26.773438 6.351562 -25.84375 4.5 -24.71875 L 1.4375 -30.46875 C 2.851562 -31.613281 4.78125 -32.734375 7.21875 -33.828125 C 9.664062 -34.921875 12.113281 -35.46875 14.5625 -35.46875 Z M 14.5625 -35.46875 "/></g></g></g><g fill="#a49e9e" fill-opacity="1"><g transform="translate(160.844767, 153.533533)"><g><path d="M 23.125 -1.484375 C 21.96875 -0.691406 20.753906 -0.140625 19.484375 0.171875 C 18.210938 0.484375 16.675781 0.640625 14.875 0.640625 C 13.082031 0.640625 11.429688 0.378906 9.921875 -0.140625 C 8.421875 -0.671875 7.035156 -1.578125 5.765625 -2.859375 C 4.492188 -4.148438 3.523438 -6.019531 2.859375 -8.46875 C 2.203125 -10.914062 1.875 -13.90625 1.875 -17.4375 C 1.875 -20.96875 2.203125 -23.945312 2.859375 -26.375 C 3.523438 -28.800781 4.492188 -30.65625 5.765625 -31.9375 C 7.035156 -33.226562 8.421875 -34.140625 9.921875 -34.671875 C 11.429688 -35.203125 13.082031 -35.46875 14.875 -35.46875 C 16.675781 -35.46875 18.210938 -35.304688 19.484375 -34.984375 C 20.753906 -34.671875 21.96875 -34.109375 23.125 -33.296875 C 24.28125 -32.492188 25.253906 -31.429688 26.046875 -30.109375 C 27.703125 -27.273438 28.53125 -23.050781 28.53125 -17.4375 C 28.53125 -9.34375 26.726562 -4.023438 23.125 -1.484375 Z M 12.234375 -28.125 C 11.503906 -27.570312 10.914062 -26.4375 10.46875 -24.71875 C 10.03125 -23 9.8125 -20.25 9.8125 -16.46875 C 9.8125 -12.6875 10.238281 -9.96875 11.09375 -8.3125 C 11.945312 -6.664062 13.332031 -5.84375 15.25 -5.84375 C 17.164062 -5.84375 18.546875 -6.648438 19.390625 -8.265625 C 20.234375 -9.890625 20.65625 -12.953125 20.65625 -17.453125 C 20.65625 -21.960938 20.21875 -25.007812 19.34375 -26.59375 C 18.46875 -28.175781 17.085938 -28.96875 15.203125 -28.96875 C 13.953125 -28.96875 12.960938 -28.6875 12.234375 -28.125 Z M 12.234375 -28.125 "/></g></g></g><g fill="#a49e9e" fill-opacity="1"><g transform="translate(191.256927, 153.533533)"><g><path d="M 14.5625 -35.46875 C 18 -35.46875 20.796875 -34.640625 22.953125 -32.984375 C 25.117188 -31.335938 26.203125 -29.078125 26.203125 -26.203125 C 26.203125 -24.285156 25.613281 -22.351562 24.4375 -20.40625 C 23.269531 -18.457031 21.859375 -16.507812 20.203125 -14.5625 C 17.398438 -11.195312 15.039062 -8.554688 13.125 -6.640625 L 13.125 -6.34375 L 26.9375 -6.640625 L 26.9375 0 L 1.984375 0 L 1.984375 -5.59375 C 4.421875 -7.96875 7.207031 -10.90625 10.34375 -14.40625 C 13.488281 -17.90625 15.617188 -20.472656 16.734375 -22.109375 C 17.859375 -23.742188 18.421875 -25.191406 18.421875 -26.453125 C 18.421875 -27.898438 17.429688 -28.625 15.453125 -28.625 C 14.097656 -28.625 12.394531 -28.253906 10.34375 -27.515625 C 8.300781 -26.773438 6.351562 -25.84375 4.5 -24.71875 L 1.4375 -30.46875 C 2.851562 -31.613281 4.78125 -32.734375 7.21875 -33.828125 C 9.664062 -34.921875 12.113281 -35.46875 14.5625 -35.46875 Z M 14.5625 -35.46875 "/></g></g></g><g fill="#a49e9e" fill-opacity="1"><g transform="translate(220.282208, 153.533533)"><g><path d="M 14.5625 -35.46875 C 18 -35.46875 20.796875 -34.640625 22.953125 -32.984375 C 25.117188 -31.335938 26.203125 -29.078125 26.203125 -26.203125 C 26.203125 -24.285156 25.613281 -22.351562 24.4375 -20.40625 C 23.269531 -18.457031 21.859375 -16.507812 20.203125 -14.5625 C 17.398438 -11.195312 15.039062 -8.554688 13.125 -6.640625 L 13.125 -6.34375 L 26.9375 -6.640625 L 26.9375 0 L 1.984375 0 L 1.984375 -5.59375 C 4.421875 -7.96875 7.207031 -10.90625 10.34375 -14.40625 C 13.488281 -17.90625 15.617188 -20.472656 16.734375 -22.109375 C 17.859375 -23.742188 18.421875 -25.191406 18.421875 -26.453125 C 18.421875 -27.898438 17.429688 -28.625 15.453125 -28.625 C 14.097656 -28.625 12.394531 -28.253906 10.34375 -27.515625 C 8.300781 -26.773438 6.351562 -25.84375 4.5 -24.71875 L 1.4375 -30.46875 C 2.851562 -31.613281 4.78125 -32.734375 7.21875 -33.828125 C 9.664062 -34.921875 12.113281 -35.46875 14.5625 -35.46875 Z M 14.5625 -35.46875 "/></g></g></g><path fill="#d9362e" d="M 346.804688 169.898438 L 317.949219 169.898438 L 346.265625 195.625 L 317.949219 221.339844 L 346.804688 221.339844 L 375.121094 195.625 L 346.804688 169.898438 " fill-opacity="1" fill-rule="nonzero"/><g fill="#d9362e" fill-opacity="1"><g transform="translate(62.369389, 221.472615)"><g><path d="M 51.484375 -0.15625 L 39.703125 -0.15625 L 26.71875 -38.4375 C 26.632812 -38.851562 26.347656 -39.0625 25.859375 -39.0625 C 25.398438 -39.0625 25.0625 -38.851562 24.84375 -38.4375 L 12.140625 -0.15625 L 0.203125 -0.15625 C 0.878906 -2.519531 2.335938 -7.21875 4.578125 -14.25 C 6.816406 -21.28125 9 -27.929688 11.125 -34.203125 C 13.476562 -41.179688 14.914062 -45.066406 15.4375 -45.859375 C 16.414062 -47.242188 17.835938 -48.300781 19.703125 -49.03125 C 21.578125 -49.769531 23.613281 -50.140625 25.8125 -50.140625 C 28.019531 -50.140625 30.050781 -49.769531 31.90625 -49.03125 C 33.769531 -48.300781 35.191406 -47.242188 36.171875 -45.859375 C 36.765625 -45.046875 38.226562 -41.191406 40.5625 -34.296875 C 42 -30.054688 44.144531 -23.398438 47 -14.328125 C 48.738281 -8.816406 50.234375 -4.09375 51.484375 -0.15625 Z M 51.484375 -0.15625 "/></g></g></g><g fill="#d9362e" fill-opacity="1"><g transform="translate(113.843266, 221.472615)"><g><path d="M 52.5 -10.1875 C 52.5 -7.03125 51.191406 -4.421875 48.578125 -2.359375 C 46.140625 -0.429688 43.222656 0.53125 39.828125 0.53125 C 36.898438 0.53125 34.265625 -0.242188 31.921875 -1.796875 C 29.316406 -3.523438 27.472656 -6.007812 26.390625 -9.25 C 26.171875 -9.894531 25.179688 -13.421875 23.421875 -19.828125 C 21.816406 -25.640625 20.414062 -30.1875 19.21875 -33.46875 C 17.5625 -37.957031 16.21875 -40.132812 15.1875 -40 C 14.507812 -39.832031 14.035156 -39.550781 13.765625 -39.15625 C 13.492188 -38.757812 13.359375 -38.210938 13.359375 -37.515625 L 13.359375 -0.15625 L 2.359375 -0.15625 L 2.359375 -40.078125 C 2.359375 -43.710938 3.726562 -46.476562 6.46875 -48.375 C 8.832031 -50.007812 11.863281 -50.828125 15.5625 -50.828125 C 20.5 -50.828125 24.421875 -48.34375 27.328125 -43.375 C 29.285156 -40.0625 31.144531 -34.695312 32.90625 -27.28125 C 34.863281 -19.132812 36.289062 -14.085938 37.1875 -12.140625 C 37.675781 -11.078125 38.421875 -10.546875 39.421875 -10.546875 C 39.960938 -10.546875 40.429688 -10.757812 40.828125 -11.1875 C 41.222656 -11.625 41.421875 -12.222656 41.421875 -12.984375 L 41.421875 -50.296875 L 52.5 -50.296875 Z M 52.5 -10.1875 "/></g></g></g><g fill="#d9362e" fill-opacity="1"><g transform="translate(168.534261, 221.472615)"><g><path d="M 44.265625 -39.421875 L 21.78125 -39.421875 C 19.070312 -39.421875 16.941406 -37.984375 15.390625 -35.109375 C 14.003906 -32.523438 13.3125 -29.332031 13.3125 -25.53125 C 13.3125 -21.625 14.03125 -18.285156 15.46875 -15.515625 C 17.050781 -12.472656 19.15625 -10.953125 21.78125 -10.953125 L 26.140625 -10.75 L 31.609375 -10.75 C 32.742188 -10.75 33.632812 -11.21875 34.28125 -12.15625 C 34.9375 -13.09375 35.265625 -14.171875 35.265625 -15.390625 C 35.265625 -16.617188 34.953125 -17.660156 34.328125 -18.515625 C 33.703125 -19.367188 32.796875 -19.796875 31.609375 -19.796875 L 26.140625 -19.796875 L 26.140625 -30.546875 L 33.390625 -30.546875 C 37.597656 -30.546875 40.925781 -28.96875 43.375 -25.8125 C 45.570312 -22.988281 46.671875 -19.503906 46.671875 -15.359375 C 46.671875 -11.222656 45.570312 -7.734375 43.375 -4.890625 C 40.925781 -1.734375 37.597656 -0.15625 33.390625 -0.15625 L 19.953125 -0.15625 C 14.117188 -0.15625 9.503906 -2.695312 6.109375 -7.78125 C 3.066406 -12.34375 1.546875 -17.960938 1.546875 -24.640625 C 1.546875 -31.429688 3.09375 -37.210938 6.1875 -41.984375 C 9.613281 -47.285156 14.203125 -49.9375 19.953125 -49.9375 L 44.265625 -49.9375 Z M 44.265625 -39.421875 "/></g></g></g><g fill="#d9362e" fill-opacity="1"><g transform="translate(214.999209, 221.472615)"><g><path d="M 51.484375 -0.15625 L 39.703125 -0.15625 L 26.71875 -38.4375 C 26.632812 -38.851562 26.347656 -39.0625 25.859375 -39.0625 C 25.398438 -39.0625 25.0625 -38.851562 24.84375 -38.4375 L 12.140625 -0.15625 L 0.203125 -0.15625 C 0.878906 -2.519531 2.335938 -7.21875 4.578125 -14.25 C 6.816406 -21.28125 9 -27.929688 11.125 -34.203125 C 13.476562 -41.179688 14.914062 -45.066406 15.4375 -45.859375 C 16.414062 -47.242188 17.835938 -48.300781 19.703125 -49.03125 C 21.578125 -49.769531 23.613281 -50.140625 25.8125 -50.140625 C 28.019531 -50.140625 30.050781 -49.769531 31.90625 -49.03125 C 33.769531 -48.300781 35.191406 -47.242188 36.171875 -45.859375 C 36.765625 -45.046875 38.226562 -41.191406 40.5625 -34.296875 C 42 -30.054688 44.144531 -23.398438 47 -14.328125 C 48.738281 -8.816406 50.234375 -4.09375 51.484375 -0.15625 Z M 51.484375 -0.15625 "/></g></g></g><g fill="#d9362e" fill-opacity="1"><g transform="translate(266.473086, 221.472615)"><g><path d="M 44.875 -0.15625 L 13.5625 -12.546875 L 13.5625 -0.15625 L 2.734375 -0.15625 L 2.734375 -16.65625 C 2.734375 -20.625 3.707031 -23.828125 5.65625 -26.265625 C 7.9375 -29.117188 11.289062 -30.546875 15.71875 -30.546875 L 29.203125 -30.546875 C 30.453125 -30.546875 31.414062 -30.972656 32.09375 -31.828125 C 32.769531 -32.679688 33.109375 -33.691406 33.109375 -34.859375 C 33.109375 -36.109375 32.78125 -37.15625 32.125 -38 C 31.394531 -38.945312 30.421875 -39.421875 29.203125 -39.421875 L 2.734375 -39.421875 L 2.734375 -49.9375 L 31.03125 -49.9375 C 35.269531 -49.9375 38.625 -48.375 41.09375 -45.25 C 43.320312 -42.425781 44.4375 -38.960938 44.4375 -34.859375 C 44.4375 -30.785156 43.320312 -27.335938 41.09375 -24.515625 C 38.625 -21.367188 35.269531 -19.796875 31.03125 -19.796875 L 24.1875 -19.796875 L 44.875 -11.890625 Z M 44.875 -0.15625 "/></g></g></g><g fill="#a49e9e" fill-opacity="1"><g transform="translate(30.883503, 256.915218)"><g><path d="M 15.90625 -16.65625 C 13.46875 -16.945312 11.597656 -17.09375 10.296875 -17.09375 C 8.992188 -17.09375 8.113281 -16.914062 7.65625 -16.5625 C 6.769531 -15.851562 6.328125 -13.703125 6.328125 -10.109375 C 6.328125 -8.472656 6.46875 -7.132812 6.75 -6.09375 C 7.039062 -5.050781 7.394531 -4.367188 7.8125 -4.046875 C 8.238281 -3.734375 8.867188 -3.578125 9.703125 -3.578125 C 10.546875 -3.578125 11.46875 -3.707031 12.46875 -3.96875 C 13.476562 -4.238281 14.625 -4.628906 15.90625 -5.140625 L 17.25 -1.65625 C 17.007812 -1.5 16.671875 -1.304688 16.234375 -1.078125 C 15.804688 -0.847656 14.953125 -0.546875 13.671875 -0.171875 C 12.390625 0.203125 11.125 0.390625 9.875 0.390625 C 7.238281 0.390625 5.179688 -0.457031 3.703125 -2.15625 C 2.222656 -3.851562 1.484375 -6.535156 1.484375 -10.203125 C 1.484375 -13.671875 2.035156 -16.265625 3.140625 -17.984375 C 3.648438 -18.796875 4.289062 -19.441406 5.0625 -19.921875 C 5.84375 -20.398438 6.648438 -20.726562 7.484375 -20.90625 C 8.328125 -21.082031 9.210938 -21.171875 10.140625 -21.171875 C 11.066406 -21.171875 12.15625 -21.097656 13.40625 -20.953125 C 14.664062 -20.804688 15.671875 -20.632812 16.421875 -20.4375 Z M 15.90625 -16.65625 "/></g></g></g><g fill="#a49e9e" fill-opacity="1"><g transform="translate(49.160737, 256.915218)"><g><path d="M 13.796875 -0.078125 C 12.796875 0.234375 11.644531 0.390625 10.34375 0.390625 C 9.050781 0.390625 7.90625 0.234375 6.90625 -0.078125 C 5.90625 -0.398438 4.984375 -0.945312 4.140625 -1.71875 C 2.367188 -3.289062 1.484375 -6.195312 1.484375 -10.4375 C 1.484375 -15.207031 2.703125 -18.363281 5.140625 -19.90625 C 6.460938 -20.75 8.203125 -21.171875 10.359375 -21.171875 C 13.722656 -21.171875 16.109375 -20.109375 17.515625 -17.984375 C 18.648438 -16.242188 19.21875 -13.726562 19.21875 -10.4375 C 19.21875 -6.195312 18.332031 -3.289062 16.5625 -1.71875 C 15.71875 -0.945312 14.796875 -0.398438 13.796875 -0.078125 Z M 8 -16.625 C 7.457031 -16.3125 7.035156 -15.664062 6.734375 -14.6875 C 6.441406 -13.707031 6.296875 -12.273438 6.296875 -10.390625 C 6.296875 -8.515625 6.445312 -7.082031 6.75 -6.09375 C 7.0625 -5.101562 7.488281 -4.457031 8.03125 -4.15625 C 8.570312 -3.851562 9.34375 -3.703125 10.34375 -3.703125 C 11.351562 -3.703125 12.125 -3.859375 12.65625 -4.171875 C 13.820312 -4.835938 14.40625 -6.90625 14.40625 -10.375 C 14.40625 -13.882812 13.84375 -15.96875 12.71875 -16.625 C 12.164062 -16.9375 11.375 -17.09375 10.34375 -17.09375 C 9.320312 -17.09375 8.539062 -16.9375 8 -16.625 Z M 8 -16.625 "/></g></g></g><g fill="#a49e9e" fill-opacity="1"><g transform="translate(69.863108, 256.915218)"><g><path d="M 2.453125 -20.796875 L 8.25 -20.796875 L 14.671875 -6.03125 L 14.84375 -6.03125 L 14.5 -20.796875 L 18.78125 -20.796875 L 18.78125 0 L 12.984375 0 L 6.5625 -14.765625 L 6.390625 -14.765625 L 6.75 0 L 2.453125 0 Z M 2.453125 -20.796875 "/></g></g></g><g fill="#a49e9e" fill-opacity="1"><g transform="translate(91.038681, 256.915218)"><g><path d="M 8.21875 -17.09375 C 7.570312 -17.09375 7.070312 -16.96875 6.71875 -16.71875 C 6.363281 -16.476562 6.1875 -16.0625 6.1875 -15.46875 C 6.1875 -14.875 6.4375 -14.382812 6.9375 -14 C 7.4375 -13.613281 7.992188 -13.28125 8.609375 -13 C 9.222656 -12.71875 9.769531 -12.472656 10.25 -12.265625 C 10.726562 -12.054688 11.097656 -11.882812 11.359375 -11.75 C 11.617188 -11.625 11.96875 -11.441406 12.40625 -11.203125 C 12.851562 -10.972656 13.195312 -10.753906 13.4375 -10.546875 C 13.6875 -10.335938 13.972656 -10.070312 14.296875 -9.75 C 14.628906 -9.425781 14.875 -9.09375 15.03125 -8.75 C 15.4375 -7.90625 15.640625 -7 15.640625 -6.03125 C 15.640625 -4.125 14.953125 -2.578125 13.578125 -1.390625 C 12.210938 -0.203125 10.425781 0.390625 8.21875 0.390625 C 7.09375 0.390625 5.925781 0.238281 4.71875 -0.0625 C 3.519531 -0.375 2.597656 -0.6875 1.953125 -1 L 0.96875 -1.453125 C 1.007812 -1.609375 1.082031 -1.816406 1.1875 -2.078125 C 1.300781 -2.429688 1.613281 -3.453125 2.125 -5.140625 C 4.550781 -4.179688 6.78125 -3.703125 8.8125 -3.703125 C 9.382812 -3.703125 9.878906 -3.828125 10.296875 -4.078125 C 10.710938 -4.335938 10.921875 -4.929688 10.921875 -5.859375 C 10.921875 -6.285156 10.800781 -6.613281 10.5625 -6.84375 C 10.320312 -7.070312 10.125 -7.25 9.96875 -7.375 C 9.8125 -7.507812 9.582031 -7.65625 9.28125 -7.8125 C 8.988281 -7.96875 8.734375 -8.09375 8.515625 -8.1875 C 8.066406 -8.40625 7.242188 -8.796875 6.046875 -9.359375 C 4.859375 -9.921875 3.992188 -10.421875 3.453125 -10.859375 C 2.097656 -11.921875 1.421875 -13.359375 1.421875 -15.171875 C 1.421875 -16.984375 2.054688 -18.4375 3.328125 -19.53125 C 4.597656 -20.625 6.40625 -21.171875 8.75 -21.171875 C 9.601562 -21.171875 10.539062 -21.09375 11.5625 -20.9375 C 12.59375 -20.78125 13.707031 -20.535156 14.90625 -20.203125 L 14.171875 -16.421875 C 11.804688 -16.867188 9.820312 -17.09375 8.21875 -17.09375 Z M 8.21875 -17.09375 "/></g></g></g><g fill="#a49e9e" fill-opacity="1"><g transform="translate(107.896328, 256.915218)"><g><path d="M 13.671875 -20.796875 L 18.3125 -20.796875 L 18.3125 -9.375 C 18.3125 -5.707031 17.664062 -3.160156 16.375 -1.734375 C 15.082031 -0.316406 13.085938 0.390625 10.390625 0.390625 C 7.703125 0.390625 5.707031 -0.304688 4.40625 -1.703125 C 3.101562 -3.109375 2.453125 -5.585938 2.453125 -9.140625 L 2.453125 -20.796875 L 7.09375 -20.796875 L 7.09375 -9.90625 C 7.09375 -8.050781 7.195312 -6.679688 7.40625 -5.796875 C 7.613281 -4.910156 7.929688 -4.328125 8.359375 -4.046875 C 8.796875 -3.773438 9.472656 -3.644531 10.390625 -3.65625 C 11.304688 -3.664062 11.976562 -3.800781 12.40625 -4.0625 C 12.832031 -4.332031 13.148438 -4.898438 13.359375 -5.765625 C 13.566406 -6.628906 13.671875 -8.007812 13.671875 -9.90625 Z M 13.671875 -20.796875 "/></g></g></g><g fill="#a49e9e" fill-opacity="1"><g transform="translate(128.657847, 256.915218)"><g><path d="M 2.453125 0 L 2.453125 -20.796875 L 7.09375 -20.796875 L 6.953125 -4 L 14.609375 -4.046875 L 14.609375 0 Z M 2.453125 0 "/></g></g></g><g fill="#a49e9e" fill-opacity="1"><g transform="translate(142.942487, 256.915218)"><g><path d="M -0.46875 -20.796875 L 15.703125 -20.796875 L 15.703125 -16.765625 L 9.796875 -16.859375 L 9.875 0 L 5.234375 0 L 5.328125 -16.859375 L -0.46875 -16.765625 Z M -0.46875 -20.796875 "/></g></g></g><g fill="#a49e9e" fill-opacity="1"><g transform="translate(158.203087, 256.915218)"><g><path d="M 13.796875 -0.078125 C 12.796875 0.234375 11.644531 0.390625 10.34375 0.390625 C 9.050781 0.390625 7.90625 0.234375 6.90625 -0.078125 C 5.90625 -0.398438 4.984375 -0.945312 4.140625 -1.71875 C 2.367188 -3.289062 1.484375 -6.195312 1.484375 -10.4375 C 1.484375 -15.207031 2.703125 -18.363281 5.140625 -19.90625 C 6.460938 -20.75 8.203125 -21.171875 10.359375 -21.171875 C 13.722656 -21.171875 16.109375 -20.109375 17.515625 -17.984375 C 18.648438 -16.242188 19.21875 -13.726562 19.21875 -10.4375 C 19.21875 -6.195312 18.332031 -3.289062 16.5625 -1.71875 C 15.71875 -0.945312 14.796875 -0.398438 13.796875 -0.078125 Z M 8 -16.625 C 7.457031 -16.3125 7.035156 -15.664062 6.734375 -14.6875 C 6.441406 -13.707031 6.296875 -12.273438 6.296875 -10.390625 C 6.296875 -8.515625 6.445312 -7.082031 6.75 -6.09375 C 7.0625 -5.101562 7.488281 -4.457031 8.03125 -4.15625 C 8.570312 -3.851562 9.34375 -3.703125 10.34375 -3.703125 C 11.351562 -3.703125 12.125 -3.859375 12.65625 -4.171875 C 13.820312 -4.835938 14.40625 -6.90625 14.40625 -10.375 C 14.40625 -13.882812 13.84375 -15.96875 12.71875 -16.625 C 12.164062 -16.9375 11.375 -17.09375 10.34375 -17.09375 C 9.320312 -17.09375 8.539062 -16.9375 8 -16.625 Z M 8 -16.625 "/></g></g></g><g fill="#a49e9e" fill-opacity="1"><g transform="translate(178.905458, 256.915218)"><g><path d="M 18.125 -14.25 C 18.125 -11.113281 16.71875 -9.046875 13.90625 -8.046875 L 13.90625 -7.875 L 18.953125 0 L 13.578125 0 L 9.765625 -7.390625 L 7.09375 -7.453125 L 7.09375 0 L 2.453125 0 L 2.578125 -9.640625 L 2.453125 -20.765625 C 7.148438 -21.035156 9.773438 -21.171875 10.328125 -21.171875 C 15.523438 -21.171875 18.125 -18.863281 18.125 -14.25 Z M 7.09375 -11.296875 C 8.4375 -11.160156 9.613281 -11.09375 10.625 -11.09375 C 11.644531 -11.09375 12.351562 -11.332031 12.75 -11.8125 C 13.144531 -12.300781 13.34375 -13.226562 13.34375 -14.59375 C 13.34375 -15.96875 13.09375 -16.8125 12.59375 -17.125 C 12.238281 -17.363281 11.457031 -17.484375 10.25 -17.484375 C 9.039062 -17.484375 7.988281 -17.421875 7.09375 -17.296875 Z M 7.09375 -11.296875 "/></g></g></g><g fill="#a49e9e" fill-opacity="1"><g transform="translate(199.459959, 256.915218)"><g><path d="M 7.046875 -11.53125 L 7.125 0 L 2.453125 0 L 2.578125 -9.578125 L 2.453125 -20.796875 L 7.125 -20.796875 Z M 7.046875 -11.53125 "/></g></g></g><g fill="#a49e9e" fill-opacity="1"><g transform="translate(209.042195, 256.915218)"><g><path d="M 4.375 0 L -0.328125 0 L 5.625 -20.796875 L 11.1875 -20.796875 L 17.125 0 L 12.421875 0 L 11.234375 -4.609375 L 5.5625 -4.609375 Z M 10.359375 -8.515625 L 8.484375 -16.53125 L 8.3125 -16.53125 L 6.453125 -8.515625 Z M 10.359375 -8.515625 "/></g></g></g><g fill="#a49e9e" fill-opacity="1"><g transform="translate(225.988564, 256.915218)"><g/></g></g><g fill="#a49e9e" fill-opacity="1"><g transform="translate(233.086516, 256.915218)"><g><path d="M 9.53125 0.390625 C 8.1875 0.390625 5.828125 0.257812 2.453125 0 L 2.453125 -20.765625 C 5.804688 -21.035156 8.226562 -21.171875 9.71875 -21.171875 C 11.207031 -21.171875 12.46875 -20.976562 13.5 -20.59375 C 14.539062 -20.21875 15.363281 -19.71875 15.96875 -19.09375 C 16.582031 -18.46875 17.078125 -17.679688 17.453125 -16.734375 C 18.097656 -15.160156 18.421875 -13.128906 18.421875 -10.640625 C 18.421875 -6.722656 17.640625 -3.90625 16.078125 -2.1875 C 14.523438 -0.46875 12.34375 0.390625 9.53125 0.390625 Z M 7.0625 -3.75 C 7.894531 -3.65625 8.84375 -3.609375 9.90625 -3.609375 C 10.96875 -3.609375 11.707031 -3.796875 12.125 -4.171875 C 13.03125 -4.921875 13.484375 -7.039062 13.484375 -10.53125 C 13.484375 -14.019531 13.0625 -16.082031 12.21875 -16.71875 C 11.78125 -17.050781 11.019531 -17.21875 9.9375 -17.21875 L 7.0625 -17.03125 Z M 7.0625 -3.75 "/></g></g></g><g fill="#a49e9e" fill-opacity="1"><g transform="translate(252.990371, 256.915218)"><g><path d="M 7.046875 -11.53125 L 7.125 0 L 2.453125 0 L 2.578125 -9.578125 L 2.453125 -20.796875 L 7.125 -20.796875 Z M 7.046875 -11.53125 "/></g></g></g><g fill="#a49e9e" fill-opacity="1"><g transform="translate(262.572607, 256.915218)"><g><path d="M 7.578125 -16.53125 C 6.742188 -15.78125 6.328125 -13.753906 6.328125 -10.453125 C 6.328125 -7.148438 6.757812 -5.066406 7.625 -4.203125 C 8.144531 -3.722656 8.984375 -3.484375 10.140625 -3.484375 C 11.304688 -3.484375 12.164062 -3.546875 12.71875 -3.671875 L 12.71875 -8.140625 L 9.703125 -8.34375 L 9.703125 -11.6875 L 17.25 -11.6875 L 17.25 -0.96875 C 16.394531 -0.613281 15.3125 -0.296875 14 -0.015625 C 12.6875 0.253906 11.488281 0.390625 10.40625 0.390625 C 9.320312 0.390625 8.367188 0.300781 7.546875 0.125 C 6.734375 -0.0390625 5.9375 -0.363281 5.15625 -0.84375 C 4.382812 -1.320312 3.726562 -1.945312 3.1875 -2.71875 C 2.050781 -4.457031 1.484375 -7.039062 1.484375 -10.46875 C 1.484375 -14.769531 2.347656 -17.671875 4.078125 -19.171875 C 4.960938 -19.929688 5.929688 -20.453125 6.984375 -20.734375 C 8.046875 -21.023438 9.492188 -21.171875 11.328125 -21.171875 C 13.160156 -21.171875 15.125 -20.914062 17.21875 -20.40625 L 16.6875 -16.65625 C 14.019531 -16.945312 11.941406 -17.09375 10.453125 -17.09375 C 8.960938 -17.09375 8.003906 -16.90625 7.578125 -16.53125 Z M 7.578125 -16.53125 "/></g></g></g><g fill="#a49e9e" fill-opacity="1"><g transform="translate(281.914539, 256.915218)"><g><path d="M 7.046875 -11.53125 L 7.125 0 L 2.453125 0 L 2.578125 -9.578125 L 2.453125 -20.796875 L 7.125 -20.796875 Z M 7.046875 -11.53125 "/></g></g></g><g fill="#a49e9e" fill-opacity="1"><g transform="translate(291.496791, 256.915218)"><g><path d="M -0.46875 -20.796875 L 15.703125 -20.796875 L 15.703125 -16.765625 L 9.796875 -16.859375 L 9.875 0 L 5.234375 0 L 5.328125 -16.859375 L -0.46875 -16.765625 Z M -0.46875 -20.796875 "/></g></g></g><g fill="#a49e9e" fill-opacity="1"><g transform="translate(306.757391, 256.915218)"><g><path d="M 4.375 0 L -0.328125 0 L 5.625 -20.796875 L 11.1875 -20.796875 L 17.125 0 L 12.421875 0 L 11.234375 -4.609375 L 5.5625 -4.609375 Z M 10.359375 -8.515625 L 8.484375 -16.53125 L 8.3125 -16.53125 L 6.453125 -8.515625 Z M 10.359375 -8.515625 "/></g></g></g><g fill="#a49e9e" fill-opacity="1"><g transform="translate(323.703746, 256.915218)"><g><path d="M 2.453125 0 L 2.453125 -20.796875 L 7.09375 -20.796875 L 6.953125 -4 L 14.609375 -4.046875 L 14.609375 0 Z M 2.453125 0 "/></g></g></g><path fill="#d9362e" d="M 28.179688 220.453125 L 57.035156 220.453125 L 28.71875 194.726562 L 57.035156 169.011719 L 28.179688 169.011719 L -0.132812 194.726562 L 28.179688 220.453125 " fill-opacity="1" fill-rule="nonzero"/></svg>