<svg xmlns="http://www.w3.org/2000/svg" xmlns:xlink="http://www.w3.org/1999/xlink" width="500" zoomAndPan="magnify" viewBox="0 0 375 374.999991" height="500" preserveAspectRatio="xMidYMid meet" version="1.0"><defs><clipPath id="id1"><path d="M 302.425781 172.925781 L 373 172.925781 L 373 267.148438 L 302.425781 267.148438 Z M 302.425781 172.925781 " clip-rule="nonzero"/></clipPath></defs><g clip-path="url(#id1)"><path fill="#a49e9e" d="M 328.761719 265.421875 L 329.160156 265.1875 L 329.828125 264.71875 L 330.464844 264.207031 L 331.066406 263.648438 L 331.625 263.050781 L 332.136719 262.414062 L 332.601562 261.753906 L 333.015625 261.058594 L 333.378906 260.339844 L 333.695312 259.59375 L 333.957031 258.828125 L 334.164062 258.046875 L 334.316406 257.253906 L 334.410156 256.453125 L 334.449219 255.644531 L 334.433594 254.835938 L 334.359375 254.035156 L 334.230469 253.234375 L 334.042969 252.449219 L 333.789062 251.625 C 333.738281 251.460938 333.714844 251.300781 333.714844 251.140625 C 333.714844 251.035156 333.722656 250.933594 333.742188 250.835938 C 333.722656 250.730469 333.710938 250.617188 333.710938 250.503906 C 333.710938 250.191406 333.796875 249.898438 333.953125 249.648438 L 361.308594 201.78125 L 360.664062 201.9375 C 360.617188 201.949219 360.574219 201.957031 360.527344 201.964844 L 359.597656 202.109375 C 359.554688 202.113281 359.507812 202.121094 359.460938 202.125 L 358.523438 202.1875 C 358.484375 202.191406 358.449219 202.191406 358.410156 202.191406 L 358.410156 202.1875 L 329.789062 251.695312 C 329.808594 251.730469 329.828125 251.765625 329.84375 251.800781 L 330.257812 252.640625 C 330.277344 252.683594 330.296875 252.726562 330.3125 252.769531 L 330.652344 253.640625 C 330.671875 253.683594 330.683594 253.730469 330.699219 253.773438 L 330.960938 254.671875 C 330.976562 254.71875 330.988281 254.761719 330.996094 254.808594 L 331.183594 255.726562 C 331.191406 255.769531 331.199219 255.816406 331.203125 255.863281 L 331.3125 256.792969 C 331.316406 256.839844 331.320312 256.886719 331.320312 256.933594 L 331.351562 257.867188 C 331.351562 257.886719 331.351562 257.902344 331.351562 257.917969 C 331.351562 257.949219 331.351562 257.976562 331.347656 258.007812 L 331.296875 258.945312 C 331.292969 258.988281 331.289062 259.035156 331.28125 259.082031 L 331.152344 260.007812 C 331.144531 260.054688 331.136719 260.101562 331.125 260.144531 L 330.917969 261.058594 C 330.90625 261.105469 330.894531 261.148438 330.878906 261.191406 L 330.59375 262.085938 C 330.578125 262.128906 330.5625 262.171875 330.546875 262.214844 L 330.183594 263.082031 C 330.164062 263.121094 330.144531 263.164062 330.125 263.207031 L 329.691406 264.035156 C 329.667969 264.078125 329.644531 264.117188 329.621094 264.15625 L 329.117188 264.949219 C 329.09375 264.988281 329.066406 265.023438 329.039062 265.0625 Z M 352.050781 173.101562 L 352.910156 173.253906 C 352.957031 173.261719 353.003906 173.273438 353.050781 173.285156 L 353.96875 173.527344 C 354.015625 173.539062 354.058594 173.554688 354.105469 173.570312 L 355 173.890625 C 355.042969 173.90625 355.089844 173.925781 355.128906 173.945312 L 355.996094 174.34375 C 356.039062 174.363281 356.082031 174.382812 356.121094 174.40625 L 356.949219 174.878906 C 356.988281 174.902344 357.027344 174.925781 357.066406 174.953125 L 357.851562 175.496094 C 357.890625 175.523438 357.925781 175.550781 357.964844 175.582031 L 358.695312 176.1875 C 358.734375 176.214844 358.769531 176.25 358.800781 176.28125 L 359.480469 176.949219 C 359.515625 176.980469 359.546875 177.015625 359.578125 177.050781 L 360.195312 177.773438 C 360.226562 177.8125 360.253906 177.847656 360.28125 177.886719 L 360.402344 178.058594 L 360.445312 178.0625 C 360.484375 178.066406 360.523438 178.070312 360.5625 178.074219 L 361.335938 178.207031 C 361.375 178.214844 361.414062 178.21875 361.449219 178.230469 L 362.214844 178.414062 C 362.253906 178.425781 362.289062 178.433594 362.328125 178.445312 L 363.054688 178.679688 L 362.949219 178.449219 L 362.578125 177.789062 L 362.160156 177.160156 L 361.699219 176.566406 L 361.191406 176.003906 L 360.648438 175.484375 L 360.0625 175.003906 L 359.445312 174.570312 L 358.796875 174.183594 L 358.125 173.84375 L 357.425781 173.558594 L 356.707031 173.324219 L 355.976562 173.140625 L 355.207031 173.011719 L 354.433594 172.941406 L 353.65625 172.933594 L 352.878906 172.980469 L 352.109375 173.089844 Z M 302.519531 252.738281 L 302.546875 253.535156 L 302.636719 254.328125 L 302.796875 255.113281 L 303.023438 255.878906 L 303.019531 255.878906 L 303.3125 256.621094 L 303.664062 257.339844 L 304.078125 258.027344 L 304.464844 258.570312 L 304.890625 259.085938 L 305.351562 259.566406 L 305.847656 260.019531 L 306.375 260.429688 L 306.929688 260.804688 L 307.507812 261.140625 L 308.113281 261.433594 L 308.734375 261.683594 L 309.371094 261.886719 L 310.023438 262.042969 L 310.683594 262.15625 L 311.40625 262.222656 C 311.910156 262.273438 312.339844 262.546875 312.605469 262.933594 L 313 263.492188 L 313.429688 264.007812 L 313.890625 264.492188 L 314.386719 264.941406 L 314.914062 265.355469 L 315.46875 265.730469 L 316.046875 266.0625 L 316.648438 266.355469 L 317.273438 266.605469 L 317.910156 266.808594 L 318.5625 266.96875 L 319.222656 267.078125 L 319.882812 267.140625 L 320.6875 267.15625 L 321.484375 267.101562 L 322.277344 266.980469 L 323.054688 266.792969 L 323.8125 266.539062 L 324.542969 266.222656 L 325.25 265.84375 L 325.917969 265.40625 L 326.546875 264.914062 L 327.132812 264.371094 L 327.671875 263.777344 L 328.15625 263.144531 L 328.585938 262.46875 L 328.953125 261.761719 L 329.261719 261.023438 L 329.507812 260.261719 L 329.6875 259.484375 L 329.796875 258.695312 L 329.84375 257.898438 L 329.816406 257.097656 L 329.726562 256.304688 L 329.566406 255.523438 L 329.339844 254.757812 L 329.050781 254.011719 L 328.699219 253.296875 L 328.28125 252.597656 C 328.269531 252.582031 328.261719 252.566406 328.253906 252.550781 C 328.101562 252.296875 328.023438 252.019531 328.019531 251.746094 C 328.019531 251.734375 328.019531 251.722656 328.019531 251.710938 C 328.019531 251.433594 328.089844 251.15625 328.238281 250.898438 C 328.246094 250.882812 328.253906 250.867188 328.265625 250.855469 L 328.265625 250.851562 L 357.816406 199.734375 C 358.136719 199.179688 358.734375 198.882812 359.335938 198.921875 L 360.125 198.933594 L 360.921875 198.878906 L 361.714844 198.757812 L 362.492188 198.570312 L 363.25 198.316406 L 363.984375 198 L 364.6875 197.621094 L 365.355469 197.183594 L 365.984375 196.691406 L 366.570312 196.148438 L 367.109375 195.554688 L 367.59375 194.921875 L 368.023438 194.246094 L 368.390625 193.539062 L 368.699219 192.800781 L 368.945312 192.042969 L 369.125 191.261719 L 369.234375 190.472656 L 369.28125 189.675781 L 369.257812 188.878906 L 369.253906 188.878906 L 369.164062 188.082031 L 369.003906 187.300781 L 368.78125 186.535156 L 368.492188 185.789062 L 368.488281 185.789062 L 368.136719 185.074219 L 367.722656 184.382812 L 367.339844 183.84375 L 366.910156 183.328125 L 366.449219 182.84375 L 365.953125 182.394531 L 365.425781 181.980469 L 364.871094 181.605469 L 364.292969 181.273438 L 363.6875 180.980469 L 363.066406 180.730469 L 362.429688 180.527344 L 361.777344 180.367188 L 361.117188 180.257812 L 360.46875 180.195312 C 359.988281 180.167969 359.523438 179.933594 359.222656 179.511719 L 358.710938 178.796875 L 358.183594 178.179688 L 357.605469 177.613281 L 356.980469 177.09375 L 356.3125 176.632812 L 355.609375 176.230469 L 354.871094 175.890625 L 354.105469 175.617188 L 353.324219 175.410156 L 352.523438 175.269531 L 351.714844 175.199219 L 350.902344 175.199219 L 350.09375 175.269531 L 349.296875 175.410156 L 348.511719 175.617188 L 347.746094 175.894531 L 347.011719 176.234375 L 346.304688 176.632812 L 345.636719 177.09375 L 345.011719 177.613281 L 344.433594 178.179688 L 343.90625 178.796875 L 343.4375 179.457031 L 343.019531 180.160156 L 342.726562 180.761719 L 342.472656 181.390625 L 342.269531 182.03125 L 342.109375 182.6875 L 341.996094 183.355469 L 341.933594 184.027344 L 341.917969 184.703125 L 341.953125 185.378906 L 342.035156 186.046875 L 342.164062 186.710938 L 342.34375 187.363281 L 342.566406 188 L 342.835938 188.621094 L 343.148438 189.21875 L 343.539062 189.84375 C 343.613281 189.964844 343.671875 190.097656 343.714844 190.234375 C 343.757812 190.386719 343.78125 190.542969 343.78125 190.699219 C 343.78125 190.976562 343.710938 191.257812 343.5625 191.511719 L 314.011719 242.632812 C 313.730469 243.152344 313.175781 243.503906 312.542969 243.492188 L 311.675781 243.480469 L 310.878906 243.53125 L 310.085938 243.652344 L 309.308594 243.84375 L 308.550781 244.097656 L 307.820312 244.414062 L 307.113281 244.792969 L 306.445312 245.230469 L 305.816406 245.722656 L 305.230469 246.265625 L 304.691406 246.855469 L 304.207031 247.492188 L 303.777344 248.164062 L 303.410156 248.875 L 303.101562 249.609375 L 302.855469 250.371094 L 302.675781 251.148438 L 302.566406 251.941406 Z M 367.386719 197.835938 L 367.613281 197.75 L 368.257812 197.429688 L 368.878906 197.058594 L 369.464844 196.640625 L 370.019531 196.175781 L 370.535156 195.671875 L 371.007812 195.128906 L 371.4375 194.546875 L 371.433594 194.546875 L 371.816406 193.933594 L 372.148438 193.292969 L 372.425781 192.628906 L 372.652344 191.945312 L 372.820312 191.242188 L 372.9375 190.53125 L 372.992188 189.8125 L 372.992188 189.089844 L 372.9375 188.375 L 372.824219 187.667969 L 372.65625 186.972656 L 372.433594 186.289062 L 372.15625 185.628906 L 371.828125 184.992188 L 371.453125 184.382812 L 371.03125 183.800781 L 370.5625 183.257812 L 370.050781 182.753906 L 369.503906 182.289062 L 368.921875 181.871094 L 368.308594 181.5 L 368.089844 181.390625 L 368.152344 181.46875 C 368.179688 181.5 368.203125 181.527344 368.222656 181.558594 L 368.679688 182.199219 C 368.707031 182.234375 368.726562 182.269531 368.75 182.304688 L 369.234375 183.109375 C 369.257812 183.148438 369.28125 183.191406 369.300781 183.230469 L 369.714844 184.074219 C 369.734375 184.113281 369.753906 184.15625 369.769531 184.199219 L 370.109375 185.074219 C 370.125 185.117188 370.140625 185.160156 370.152344 185.203125 L 370.417969 186.105469 C 370.429688 186.148438 370.441406 186.195312 370.449219 186.238281 L 370.636719 187.15625 C 370.648438 187.203125 370.65625 187.25 370.660156 187.292969 L 370.765625 188.226562 C 370.773438 188.269531 370.777344 188.316406 370.777344 188.363281 L 370.804688 189.300781 C 370.804688 189.316406 370.804688 189.332031 370.804688 189.347656 C 370.804688 189.378906 370.804688 189.410156 370.804688 189.4375 L 370.753906 190.375 C 370.75 190.421875 370.746094 190.46875 370.738281 190.511719 L 370.605469 191.441406 C 370.601562 191.488281 370.59375 191.53125 370.582031 191.578125 L 370.371094 192.492188 C 370.363281 192.535156 370.347656 192.582031 370.335938 192.625 L 370.046875 193.515625 C 370.035156 193.5625 370.019531 193.605469 370 193.648438 L 369.636719 194.511719 C 369.621094 194.554688 369.601562 194.597656 369.578125 194.636719 L 369.144531 195.46875 C 369.125 195.507812 369.101562 195.550781 369.074219 195.589844 L 368.574219 196.378906 C 368.546875 196.417969 368.519531 196.457031 368.492188 196.492188 L 367.925781 197.238281 C 367.894531 197.277344 367.867188 197.3125 367.835938 197.34375 Z M 367.386719 197.835938 " fill-opacity="1" fill-rule="nonzero"/></g><path fill="#be5e3e" d="M 254.132812 160.695312 C 254.132812 160.695312 276.75 179.917969 274.769531 187.273438 C 264.011719 227.203125 268.132812 219.0625 261.617188 235.109375 C 261.617188 235.109375 260.691406 242.492188 228.488281 241.53125 L 215.269531 237.394531 L 214.285156 228.4375 C 214.285156 228.4375 226.898438 218.816406 239.863281 221.355469 C 239.863281 221.355469 239.148438 209.738281 245.605469 198.851562 C 245.605469 198.851562 215.972656 172.492188 219.644531 160.921875 L 234.648438 147.386719 L 254.132812 160.695312 " fill-opacity="1" fill-rule="nonzero"/><path fill="#b05339" d="M 252.117188 159.316406 L 234.648438 147.386719 L 219.644531 160.921875 C 218.203125 165.472656 221.917969 172.304688 226.949219 178.933594 C 232.382812 175.46875 244.335938 167.464844 252.117188 159.316406 " fill-opacity="1" fill-rule="nonzero"/><path fill="#cf7d57" d="M 284.84375 141.0625 C 284.84375 141.0625 289.105469 147.519531 288.394531 156.984375 C 288.394531 156.984375 288.867188 164.539062 291.8125 175.140625 C 291.8125 175.140625 295.558594 192.257812 293.558594 196.761719 C 293.558594 196.761719 263.890625 223.363281 260.351562 229.09375 C 260.351562 229.09375 234.726562 215.714844 266.425781 188.949219 C 266.425781 188.949219 257.726562 180.421875 261.835938 164.863281 C 261.835938 164.863281 246.796875 163.335938 233.113281 152.21875 L 244.828125 138.796875 L 284.84375 141.0625 " fill-opacity="1" fill-rule="nonzero"/><path fill="#c36746" d="M 284.84375 141.0625 L 244.828125 138.796875 L 233.113281 152.21875 C 236.921875 155.3125 240.828125 157.660156 244.492188 159.445312 L 252.046875 151.308594 C 262.683594 153.824219 279.472656 152.492188 288.269531 151.519531 C 287.511719 145.128906 284.84375 141.0625 284.84375 141.0625 " fill-opacity="1" fill-rule="nonzero"/><path fill="#e8a982" d="M 356.210938 145.734375 C 352.226562 134.804688 342.476562 131.179688 342.476562 131.179688 C 329.371094 123.664062 295.503906 105.660156 295.503906 105.660156 C 284.789062 93.011719 271.496094 98.152344 271.496094 98.152344 C 257.519531 100.613281 209.988281 103.976562 209.988281 103.976562 C 197.878906 104.175781 189.863281 111.351562 189.863281 111.351562 C 177.925781 121.855469 119.117188 175.230469 119.117188 175.230469 C 106.742188 186.445312 51.792969 177.089844 0.726562 165.1875 L 0.726562 263.992188 C 14.769531 265.40625 24.015625 266.425781 24.015625 266.425781 C 76.394531 269.75 116.109375 275.105469 116.109375 275.105469 C 133.851562 280.65625 179.957031 274.578125 179.957031 274.578125 C 195.765625 268.128906 245.941406 278.128906 245.941406 278.128906 C 252.917969 281.449219 262.75 279.398438 262.75 279.398438 C 267.714844 276.398438 314.675781 280.265625 314.675781 280.265625 C 328.550781 251 266.960938 251.667969 266.960938 251.667969 C 253.824219 242.433594 219.46875 236.808594 219.46875 236.808594 C 213.835938 231.058594 209.957031 216.179688 209.957031 216.179688 C 215.300781 204.746094 217.640625 179.277344 217.640625 179.277344 C 228.261719 162.097656 252.582031 146.921875 252.582031 146.921875 C 263.730469 151.546875 301.515625 144.570312 301.515625 144.570312 C 312.75 154.351562 340.246094 163.519531 340.246094 163.519531 C 344.3125 168.777344 351.648438 172.785156 351.648438 172.785156 C 370.191406 184.851562 376.164062 169.628906 376.164062 169.628906 C 371.800781 167.121094 356.210938 145.734375 356.210938 145.734375 " fill-opacity="1" fill-rule="nonzero"/><path fill="#e5b79d" d="M 314.675781 280.265625 C 314.675781 280.265625 290.304688 278.257812 274.816406 278.257812 C 268.8125 278.257812 264.136719 278.558594 262.75 279.398438 C 262.75 279.398438 259.746094 280.023438 255.878906 280.023438 C 252.753906 280.023438 249.058594 279.613281 245.941406 278.128906 C 245.941406 278.128906 217.246094 272.40625 196.417969 272.40625 C 189.703125 272.40625 183.808594 273.003906 179.957031 274.578125 C 179.957031 274.578125 158.214844 277.445312 138.84375 277.445312 C 130.007812 277.445312 121.664062 276.84375 116.109375 275.105469 C 116.109375 275.105469 76.394531 269.75 24.015625 266.425781 C 24.015625 266.425781 14.769531 265.40625 0.726562 263.992188 C 14.769531 265.40625 24.015625 266.425781 24.015625 266.425781 C 76.394531 269.75 116.109375 275.105469 116.109375 275.105469 C 121.664062 276.84375 130.007812 277.445312 138.84375 277.445312 C 158.214844 277.445312 179.957031 274.578125 179.957031 274.578125 C 183.808594 273.003906 189.703125 272.40625 196.417969 272.40625 C 217.246094 272.40625 245.941406 278.128906 245.941406 278.128906 C 249.058594 279.613281 252.753906 280.023438 255.878906 280.023438 C 259.746094 280.023438 262.75 279.398438 262.75 279.398438 C 264.136719 278.558594 268.8125 278.257812 274.816406 278.257812 C 290.304688 278.257812 314.675781 280.265625 314.675781 280.265625 C 314.679688 280.25 314.691406 280.242188 314.695312 280.230469 C 314.691406 280.238281 314.679688 280.25 314.675781 280.265625 M 314.699219 280.214844 C 314.703125 280.207031 314.707031 280.199219 314.710938 280.191406 C 314.707031 280.199219 314.703125 280.207031 314.699219 280.214844 M 314.71875 280.179688 C 314.71875 280.167969 314.722656 280.160156 314.730469 280.152344 C 314.722656 280.160156 314.71875 280.167969 314.71875 280.179688 " fill-opacity="1" fill-rule="nonzero"/><path fill="#da926b" d="M 314.675781 280.265625 C 314.675781 280.265625 290.304688 278.257812 274.816406 278.257812 C 268.8125 278.257812 264.136719 278.558594 262.75 279.398438 C 262.75 279.398438 259.746094 280.023438 255.878906 280.023438 C 252.753906 280.023438 249.058594 279.613281 245.941406 278.128906 C 245.941406 278.128906 217.246094 272.40625 196.417969 272.40625 C 189.703125 272.40625 183.808594 273.003906 179.957031 274.578125 C 179.957031 274.578125 158.214844 277.445312 138.84375 277.445312 C 130.007812 277.445312 121.664062 276.84375 116.109375 275.105469 C 116.109375 275.105469 76.394531 269.75 24.015625 266.425781 C 24.015625 266.425781 14.769531 265.40625 0.726562 263.992188 L 0.726562 246.046875 C 49.421875 252.835938 92.203125 260.039062 92.203125 260.039062 C 96.8125 262.84375 106.757812 263.738281 117.613281 263.738281 C 136.984375 263.738281 159.246094 260.878906 159.246094 260.878906 C 162.136719 260.304688 165.683594 260.058594 169.667969 260.058594 C 194.394531 260.058594 236.03125 269.65625 242.710938 271.421875 C 245.410156 272.132812 247.886719 272.363281 249.972656 272.363281 C 253.898438 272.363281 256.445312 271.539062 256.445312 271.539062 C 261.707031 270.640625 267.976562 270.285156 274.578125 270.285156 C 289.5625 270.285156 306.246094 272.113281 316.652344 273.488281 C 316.472656 275.515625 315.863281 277.726562 314.730469 280.152344 C 314.722656 280.160156 314.71875 280.167969 314.71875 280.179688 C 314.714844 280.183594 314.714844 280.1875 314.710938 280.191406 C 314.707031 280.199219 314.703125 280.207031 314.699219 280.214844 C 314.699219 280.222656 314.695312 280.226562 314.695312 280.230469 C 314.691406 280.242188 314.679688 280.25 314.675781 280.265625 " fill-opacity="1" fill-rule="nonzero"/><path fill="#da926b" d="M 209.957031 216.179688 C 209.957031 216.179688 212.59375 180.738281 211.34375 175.03125 C 211.34375 175.03125 242.71875 140.039062 251.230469 138.523438 C 251.230469 138.523438 270.699219 140.003906 286.261719 140.003906 C 293.910156 140.003906 300.621094 139.644531 303.605469 138.578125 C 303.605469 138.578125 331.132812 156.683594 343.730469 157.960938 C 343.730469 157.960938 357.65625 172.359375 368.769531 176.714844 C 367.539062 177.15625 366.136719 177.429688 364.542969 177.429688 C 361.152344 177.429688 356.910156 176.203125 351.648438 172.785156 C 351.648438 172.785156 344.3125 168.777344 340.246094 163.519531 C 340.246094 163.519531 312.75 154.351562 301.515625 144.570312 C 301.515625 144.570312 295.363281 145.703125 287.289062 146.753906 C 280.339844 147.660156 271.96875 148.503906 264.871094 148.503906 C 259.789062 148.503906 255.355469 148.070312 252.582031 146.921875 C 252.582031 146.921875 246.570312 150.671875 239.226562 156.550781 C 233.777344 160.910156 227.597656 166.4375 222.582031 172.480469 C 222.582031 172.480469 222.582031 172.484375 222.582031 172.484375 C 220.746094 174.691406 219.074219 176.96875 217.640625 179.277344 C 217.640625 179.277344 215.300781 204.746094 209.957031 216.179688 " fill-opacity="1" fill-rule="nonzero"/></svg>