<svg xmlns="http://www.w3.org/2000/svg" xmlns:xlink="http://www.w3.org/1999/xlink" width="500" zoomAndPan="magnify" viewBox="0 0 375 374.999991" height="500" preserveAspectRatio="xMidYMid meet" version="1.0"><path fill="#4a4a4a" d="M 143.746094 133.039062 L 173.277344 145.515625 L 167.636719 145.988281 C 158.007812 146.773438 150.933594 151.089844 144.960938 155.988281 C 146.074219 147.355469 145.335938 140.308594 143.746094 133.039062 Z M 124.539062 96.304688 L 227.050781 124.234375 C 235.851562 126.632812 242.523438 130.191406 245.222656 137.253906 L 272.070312 207.515625 C 274.269531 213.222656 273.34375 215.59375 271.265625 218.019531 C 269.1875 220.421875 265.078125 222.519531 260.769531 223.976562 C 258.675781 224.6875 257.339844 226.703125 257.460938 228.875 C 257.945312 235.695312 253.71875 243.363281 248.332031 247.257812 C 247.675781 242.636719 246.132812 237.664062 243.277344 232.054688 L 218.957031 184.421875 C 214.882812 176.445312 206.3125 172.125 196.9375 172.757812 L 160.199219 175.160156 C 151.6875 175.714844 145.96875 180.714844 142.832031 184.699219 L 134.519531 195.304688 C 125.996094 198.101562 120.285156 196.792969 118.164062 194.867188 C 116.214844 193.101562 116.496094 192.148438 118.242188 190.707031 L 151.933594 162.808594 C 158.332031 157.511719 160.078125 156.328125 168.46875 155.640625 L 213.746094 151.957031 C 220.949219 151.371094 224.039062 155.640625 226.167969 160.589844 L 249.621094 215.613281 C 251.972656 222.007812 261.558594 217.886719 258.554688 211.78125 L 235.117188 156.769531 C 230.769531 146.59375 223.230469 141.417969 212.96875 142.257812 L 194.082031 143.816406 L 136.898438 119.582031 C 122.105469 113.320312 115.78125 104.816406 116.496094 100.546875 C 117.378906 95.320312 120.363281 95.171875 124.539062 96.304688 Z M 252.382812 43.140625 L 274.984375 152.171875 C 277.410156 163.816406 277.410156 170.628906 276.167969 175.347656 C 275.484375 177.949219 274.378906 180.09375 272.859375 182.292969 L 254.277344 133.824219 C 251.519531 126.601562 246.359375 122.027344 240.441406 118.953125 L 234.453125 62.609375 C 233.191406 50.71875 238.320312 43.320312 243.433594 40.667969 C 248.105469 38.265625 251.59375 39.429688 252.382812 43.140625 Z M 238.652344 32.230469 C 229.730469 36.574219 223.175781 48.386719 224.796875 63.617188 L 230.257812 115.039062 L 127.054688 86.941406 C 120.300781 85.097656 113.804688 86.011719 109.914062 90.953125 C 104.980469 90.902344 100.414062 92.371094 97.25 95.320312 C 93.03125 99.28125 90.476562 105.292969 90.953125 112.164062 C 94.652344 163.183594 97.199219 209.761719 91.617188 254.667969 C 88.074219 282.941406 89.667969 302.027344 102.691406 322.582031 L 102.710938 367.902344 C 102.710938 374.386719 112.445312 374.386719 112.445312 367.902344 L 112.417969 334.753906 C 125.84375 347.53125 143.464844 351.667969 161.089844 345.660156 C 167.234375 343.5625 164.066406 334.375 157.925781 336.472656 C 139.722656 342.65625 123.566406 336.851562 111.582031 318.597656 C 98.992188 299.351562 97.730469 283.976562 101.25 255.914062 C 106.957031 209.8125 104.054688 162.605469 100.660156 111.453125 C 100.261719 105.375 102.738281 102.464844 106.832031 101.355469 C 107.695312 111.050781 116.082031 121.171875 132.644531 128.292969 C 136.226562 141.640625 137.847656 148.765625 132.949219 165.90625 L 111.105469 183.984375 C 108.171875 186.410156 106.554688 190.195312 106.9375 193.757812 C 107.316406 197.3125 109.382812 200.421875 112.339844 202.617188 C 115.734375 205.140625 120.257812 206.609375 125.667969 206.609375 L 115.675781 219.332031 C 114.339844 221.046875 114.292969 223.441406 115.578125 225.210938 C 118.632812 229.398438 122.78125 232.273438 127.382812 233.382812 C 132.007812 234.5 136.863281 233.886719 141.667969 232.207031 C 150.484375 229.121094 159.164062 222.710938 168.386719 213.542969 C 173.011719 217.28125 179.410156 218.996094 185.222656 219.328125 C 185.074219 221.726562 184.902344 222.175781 184.917969 225.234375 C 184.976562 227.859375 185.277344 230.359375 186.492188 233.234375 C 178.574219 237.144531 174.882812 243.132812 173.039062 249.511719 C 160.070312 253.882812 150.261719 258.476562 143.261719 264.988281 C 135.800781 271.933594 131.601562 281.117188 129.097656 293.664062 C 127.835938 300.054688 137.421875 301.953125 138.683594 295.558594 C 140.960938 284.074219 144.113281 277.386719 149.863281 272.058594 C 154.792969 267.492188 162.273438 263.753906 173.039062 259.816406 C 174.582031 264.6875 177.515625 268.832031 181.5625 272.132812 C 186.617188 276.933594 193.410156 268.675781 187.726562 264.664062 C 183.78125 261.40625 182.191406 258.730469 181.71875 253.90625 C 184.421875 247.292969 186.496094 242.953125 194.859375 240.300781 C 198.328125 239.304688 199.5625 235.046875 197.164062 232.371094 C 195.085938 230.046875 194.6875 228.082031 194.660156 225.125 C 194.609375 222.144531 195.296875 218.457031 195.1875 214.167969 C 195.109375 211.3125 192.582031 209.136719 189.757812 209.46875 C 182.066406 210.433594 177.742188 208.765625 170.570312 203.480469 C 168.617188 202.050781 165.886719 202.304688 164.195312 204.039062 C 154.734375 213.835938 145.585938 220.601562 138.453125 223.023438 C 133.324219 224.789062 130.160156 224.453125 126.320312 221.527344 L 150.46875 190.679688 C 152.566406 188.003906 155.75 185.144531 160.832031 184.824219 L 197.566406 182.425781 C 203.941406 181.992188 207.902344 184.164062 210.25 188.785156 L 234.652344 236.445312 C 238.71875 244.425781 239.503906 249.726562 238.917969 254.34375 C 238.371094 258.9375 236.1875 263.257812 233.136719 268.761719 L 207.046875 315.519531 C 206.640625 316.253906 206.441406 317.058594 206.441406 317.890625 L 206.460938 367.882812 C 206.460938 374.367188 216.226562 374.367188 216.226562 367.882812 L 216.175781 319.148438 L 241.640625 273.503906 C 244.496094 268.375 246.972656 263.082031 248.058594 258.335938 C 258.800781 254.46875 265.605469 243.386719 266.289062 231.726562 C 270.613281 230.058594 275.242188 228.289062 278.652344 224.300781 C 282.722656 219.554688 284.285156 212.128906 281.175781 204.054688 L 276.910156 192.871094 C 280.703125 188.421875 283.984375 183.933594 285.605469 177.800781 C 287.425781 170.878906 287.09375 162.527344 284.511719 150.152344 L 261.890625 41.167969 C 259.238281 28.445312 248.585938 27.414062 238.652344 32.230469 Z M 238.652344 32.230469 " fill-opacity="1" fill-rule="nonzero"/><path fill="#4a4a4a" d="M 159.324219 7.214844 C 155.863281 7.238281 153.511719 10.800781 154.875 13.980469 L 170.015625 50.742188 C 170.972656 53.285156 173.855469 54.527344 176.390625 53.484375 C 178.917969 52.453125 180.105469 49.550781 178.996094 47.046875 L 163.875 10.296875 C 163.140625 8.429688 161.339844 7.214844 159.324219 7.214844 Z M 159.324219 7.214844 " fill-opacity="1" fill-rule="nonzero"/><path fill="#4a4a4a" d="M 204.902344 1.054688 C 202.21875 1.101562 200.046875 3.300781 200.097656 6.003906 L 200.152344 44.648438 C 200.003906 47.425781 202.203125 49.75 205.007812 49.75 C 207.785156 49.75 210.011719 47.425781 209.863281 44.648438 L 209.863281 6.007812 C 209.910156 3.25 207.664062 1.03125 204.902344 1.054688 Z M 204.902344 1.054688 " fill-opacity="1" fill-rule="nonzero"/><path fill="#4a4a4a" d="M 122.789062 35.335938 C 118.414062 35.335938 116.238281 40.636719 119.378906 43.664062 L 146.503906 71.003906 C 148.402344 72.921875 151.457031 72.945312 153.375 71.054688 C 155.296875 69.160156 155.296875 66.089844 153.40625 64.191406 L 126.25 36.851562 C 125.34375 35.894531 124.101562 35.367188 122.789062 35.335938 Z M 122.789062 35.335938 " fill-opacity="1" fill-rule="nonzero"/></svg>